G75*
%MOIN*%
%OFA0B0*%
%FSLAX24Y24*%
%IPPOS*%
%LPD*%
%AMOC8*
5,1,8,0,0,1.08239X$1,22.5*
%
%ADD10C,0.0700*%
%ADD11C,0.0120*%
%ADD12R,0.0396X0.0396*%
D10*
X000999Y001380D03*
X001999Y001380D03*
X002999Y001380D03*
X003999Y001380D03*
X004999Y001380D03*
X005999Y001380D03*
X006999Y001380D03*
X007999Y001380D03*
X008999Y001380D03*
X009999Y001380D03*
X010999Y001380D03*
X011999Y001380D03*
X012967Y001380D03*
X013967Y001380D03*
X014967Y001380D03*
X015967Y001380D03*
X016967Y001380D03*
X017967Y001380D03*
X018967Y001380D03*
X019967Y001380D03*
X020967Y001380D03*
X021967Y001380D03*
X022967Y001380D03*
X023967Y001380D03*
X023967Y007365D03*
X022967Y007365D03*
X021967Y007365D03*
X020967Y007365D03*
X019967Y007365D03*
X018967Y007365D03*
X017967Y007365D03*
X016967Y007365D03*
X015967Y007365D03*
X014967Y007365D03*
X013967Y007365D03*
X012967Y007365D03*
X011999Y007365D03*
X010999Y007365D03*
X009999Y007365D03*
X008999Y007365D03*
X007999Y007365D03*
X006999Y007365D03*
X005999Y007365D03*
X004999Y007365D03*
X003999Y007365D03*
X002999Y007365D03*
X001999Y007365D03*
X000999Y007365D03*
D11*
X001414Y001103D02*
X001325Y001014D01*
X001672Y001014D01*
X001583Y001103D01*
X001509Y001283D01*
X001509Y001478D01*
X001583Y001658D01*
X001721Y001796D01*
X001901Y001870D01*
X002096Y001870D01*
X002276Y001796D01*
X002414Y001658D01*
X002489Y001478D01*
X002489Y001283D01*
X002414Y001103D01*
X002325Y001014D01*
X002672Y001014D01*
X002583Y001103D01*
X002509Y001283D01*
X002509Y001478D01*
X002583Y001658D01*
X002721Y001796D01*
X002901Y001870D01*
X003096Y001870D01*
X003276Y001796D01*
X003414Y001658D01*
X003489Y001478D01*
X003489Y001283D01*
X003414Y001103D01*
X003325Y001014D01*
X003672Y001014D01*
X003583Y001103D01*
X003509Y001283D01*
X003509Y001478D01*
X003583Y001658D01*
X003721Y001796D01*
X003901Y001870D01*
X004096Y001870D01*
X004276Y001796D01*
X004414Y001658D01*
X004489Y001478D01*
X004489Y001283D01*
X004414Y001103D01*
X004325Y001014D01*
X004672Y001014D01*
X004583Y001103D01*
X004509Y001283D01*
X004509Y001478D01*
X004583Y001658D01*
X004721Y001796D01*
X004901Y001870D01*
X005096Y001870D01*
X005276Y001796D01*
X005414Y001658D01*
X005489Y001478D01*
X005489Y001283D01*
X005414Y001103D01*
X005325Y001014D01*
X005672Y001014D01*
X005583Y001103D01*
X005509Y001283D01*
X005509Y001478D01*
X005583Y001658D01*
X005721Y001796D01*
X005901Y001870D01*
X006096Y001870D01*
X006276Y001796D01*
X006414Y001658D01*
X006489Y001478D01*
X006489Y001283D01*
X006414Y001103D01*
X006325Y001014D01*
X006672Y001014D01*
X006583Y001103D01*
X006509Y001283D01*
X006509Y001478D01*
X006583Y001658D01*
X006721Y001796D01*
X006901Y001870D01*
X007096Y001870D01*
X007276Y001796D01*
X007414Y001658D01*
X007489Y001478D01*
X007489Y001283D01*
X007414Y001103D01*
X007325Y001014D01*
X007672Y001014D01*
X007583Y001103D01*
X007509Y001283D01*
X007509Y001478D01*
X007583Y001658D01*
X007721Y001796D01*
X007901Y001870D01*
X008096Y001870D01*
X008276Y001796D01*
X008414Y001658D01*
X008489Y001478D01*
X008489Y001283D01*
X008414Y001103D01*
X008325Y001014D01*
X008672Y001014D01*
X008583Y001103D01*
X008509Y001283D01*
X008509Y001478D01*
X008583Y001658D01*
X008721Y001796D01*
X008901Y001870D01*
X009096Y001870D01*
X009276Y001796D01*
X009414Y001658D01*
X009489Y001478D01*
X009489Y001283D01*
X009414Y001103D01*
X009325Y001014D01*
X009672Y001014D01*
X009583Y001103D01*
X009509Y001283D01*
X009509Y001478D01*
X009583Y001658D01*
X009721Y001796D01*
X009901Y001870D01*
X010096Y001870D01*
X010276Y001796D01*
X010414Y001658D01*
X010489Y001478D01*
X010489Y001283D01*
X010414Y001103D01*
X010325Y001014D01*
X010672Y001014D01*
X010583Y001103D01*
X010509Y001283D01*
X010509Y001478D01*
X010583Y001658D01*
X010721Y001796D01*
X010901Y001870D01*
X011096Y001870D01*
X011276Y001796D01*
X011414Y001658D01*
X011489Y001478D01*
X011489Y001283D01*
X011414Y001103D01*
X011325Y001014D01*
X011672Y001014D01*
X011583Y001103D01*
X011509Y001283D01*
X011509Y001478D01*
X011583Y001658D01*
X011721Y001796D01*
X011901Y001870D01*
X012096Y001870D01*
X012276Y001796D01*
X012414Y001658D01*
X012483Y001492D01*
X012552Y001658D01*
X012690Y001796D01*
X012870Y001870D01*
X013065Y001870D01*
X013245Y001796D01*
X013382Y001658D01*
X013457Y001478D01*
X013457Y001283D01*
X013382Y001103D01*
X013293Y001014D01*
X013641Y001014D01*
X013552Y001103D01*
X013477Y001283D01*
X013477Y001478D01*
X013552Y001658D01*
X013690Y001796D01*
X013870Y001870D01*
X014065Y001870D01*
X014245Y001796D01*
X014382Y001658D01*
X014457Y001478D01*
X014457Y001283D01*
X014382Y001103D01*
X014293Y001014D01*
X014641Y001014D01*
X014552Y001103D01*
X014477Y001283D01*
X014477Y001478D01*
X014552Y001658D01*
X014690Y001796D01*
X014870Y001870D01*
X015065Y001870D01*
X015245Y001796D01*
X015382Y001658D01*
X015457Y001478D01*
X015457Y001283D01*
X015382Y001103D01*
X015293Y001014D01*
X015641Y001014D01*
X015552Y001103D01*
X015477Y001283D01*
X015477Y001478D01*
X015552Y001658D01*
X015690Y001796D01*
X015870Y001870D01*
X016065Y001870D01*
X016245Y001796D01*
X016382Y001658D01*
X016457Y001478D01*
X016457Y001283D01*
X016382Y001103D01*
X016293Y001014D01*
X016641Y001014D01*
X016552Y001103D01*
X016477Y001283D01*
X016477Y001478D01*
X016552Y001658D01*
X016690Y001796D01*
X016870Y001870D01*
X017065Y001870D01*
X017245Y001796D01*
X017382Y001658D01*
X017457Y001478D01*
X017457Y001283D01*
X017382Y001103D01*
X017293Y001014D01*
X017641Y001014D01*
X017552Y001103D01*
X017477Y001283D01*
X017477Y001478D01*
X017552Y001658D01*
X017690Y001796D01*
X017870Y001870D01*
X018065Y001870D01*
X018245Y001796D01*
X018382Y001658D01*
X018457Y001478D01*
X018457Y001283D01*
X018382Y001103D01*
X018293Y001014D01*
X018641Y001014D01*
X018552Y001103D01*
X018477Y001283D01*
X018477Y001478D01*
X018552Y001658D01*
X018690Y001796D01*
X018870Y001870D01*
X019065Y001870D01*
X019245Y001796D01*
X019382Y001658D01*
X019457Y001478D01*
X019457Y001283D01*
X019382Y001103D01*
X019293Y001014D01*
X019641Y001014D01*
X019552Y001103D01*
X019477Y001283D01*
X019477Y001478D01*
X019552Y001658D01*
X019690Y001796D01*
X019870Y001870D01*
X020065Y001870D01*
X020245Y001796D01*
X020382Y001658D01*
X020457Y001478D01*
X020457Y001283D01*
X020382Y001103D01*
X020293Y001014D01*
X020641Y001014D01*
X020552Y001103D01*
X020477Y001283D01*
X020477Y001478D01*
X020552Y001658D01*
X020690Y001796D01*
X020870Y001870D01*
X021065Y001870D01*
X021245Y001796D01*
X021382Y001658D01*
X021457Y001478D01*
X021457Y001283D01*
X021382Y001103D01*
X021293Y001014D01*
X021641Y001014D01*
X021552Y001103D01*
X021477Y001283D01*
X021477Y001478D01*
X021552Y001658D01*
X021690Y001796D01*
X021870Y001870D01*
X022065Y001870D01*
X022245Y001796D01*
X022382Y001658D01*
X022457Y001478D01*
X022457Y001283D01*
X022382Y001103D01*
X022293Y001014D01*
X022641Y001014D01*
X022552Y001103D01*
X022477Y001283D01*
X022477Y001478D01*
X022552Y001658D01*
X022690Y001796D01*
X022870Y001870D01*
X023065Y001870D01*
X023245Y001796D01*
X023382Y001658D01*
X023457Y001478D01*
X023457Y001283D01*
X023382Y001103D01*
X023293Y001014D01*
X023641Y001014D01*
X023552Y001103D01*
X023477Y001283D01*
X023477Y001478D01*
X023552Y001658D01*
X023690Y001796D01*
X023870Y001870D01*
X024065Y001870D01*
X024208Y001811D01*
X024208Y006934D01*
X024065Y006875D01*
X023870Y006875D01*
X023690Y006949D01*
X023552Y007087D01*
X023477Y007267D01*
X023477Y007462D01*
X023552Y007642D01*
X023690Y007780D01*
X023870Y007855D01*
X024065Y007855D01*
X024208Y007795D01*
X024208Y007885D01*
X000817Y007885D01*
X000817Y007820D01*
X000901Y007855D01*
X001096Y007855D01*
X001276Y007780D01*
X001414Y007642D01*
X001489Y007462D01*
X001489Y007267D01*
X001414Y007087D01*
X001276Y006949D01*
X001096Y006875D01*
X000901Y006875D01*
X000817Y006910D01*
X000817Y001836D01*
X000901Y001870D01*
X001096Y001870D01*
X001276Y001796D01*
X001414Y001658D01*
X001489Y001478D01*
X001489Y001283D01*
X001414Y001103D01*
X001432Y001146D02*
X001565Y001146D01*
X001516Y001265D02*
X001481Y001265D01*
X001489Y001383D02*
X001509Y001383D01*
X001518Y001502D02*
X001479Y001502D01*
X001430Y001620D02*
X001568Y001620D01*
X001664Y001739D02*
X001333Y001739D01*
X001128Y001857D02*
X001869Y001857D01*
X002128Y001857D02*
X002869Y001857D01*
X003128Y001857D02*
X003869Y001857D01*
X004128Y001857D02*
X004869Y001857D01*
X005128Y001857D02*
X005869Y001857D01*
X006128Y001857D02*
X006869Y001857D01*
X007128Y001857D02*
X007869Y001857D01*
X008128Y001857D02*
X008869Y001857D01*
X009128Y001857D02*
X009869Y001857D01*
X010128Y001857D02*
X010869Y001857D01*
X011128Y001857D02*
X011869Y001857D01*
X012128Y001857D02*
X012838Y001857D01*
X013097Y001857D02*
X013838Y001857D01*
X014097Y001857D02*
X014838Y001857D01*
X015097Y001857D02*
X015838Y001857D01*
X016097Y001857D02*
X016838Y001857D01*
X017097Y001857D02*
X017838Y001857D01*
X018097Y001857D02*
X018838Y001857D01*
X018632Y001739D02*
X018302Y001739D01*
X018398Y001620D02*
X018536Y001620D01*
X018487Y001502D02*
X018447Y001502D01*
X018457Y001383D02*
X018477Y001383D01*
X018485Y001265D02*
X018450Y001265D01*
X018400Y001146D02*
X018534Y001146D01*
X018627Y001028D02*
X018307Y001028D01*
X017627Y001028D02*
X017307Y001028D01*
X017400Y001146D02*
X017534Y001146D01*
X017485Y001265D02*
X017450Y001265D01*
X017457Y001383D02*
X017477Y001383D01*
X017487Y001502D02*
X017447Y001502D01*
X017398Y001620D02*
X017536Y001620D01*
X017632Y001739D02*
X017302Y001739D01*
X016632Y001739D02*
X016302Y001739D01*
X016398Y001620D02*
X016536Y001620D01*
X016487Y001502D02*
X016447Y001502D01*
X016457Y001383D02*
X016477Y001383D01*
X016485Y001265D02*
X016450Y001265D01*
X016400Y001146D02*
X016534Y001146D01*
X016627Y001028D02*
X016307Y001028D01*
X015627Y001028D02*
X015307Y001028D01*
X015400Y001146D02*
X015534Y001146D01*
X015485Y001265D02*
X015450Y001265D01*
X015457Y001383D02*
X015477Y001383D01*
X015487Y001502D02*
X015447Y001502D01*
X015398Y001620D02*
X015536Y001620D01*
X015632Y001739D02*
X015302Y001739D01*
X014632Y001739D02*
X014302Y001739D01*
X014398Y001620D02*
X014536Y001620D01*
X014487Y001502D02*
X014447Y001502D01*
X014457Y001383D02*
X014477Y001383D01*
X014485Y001265D02*
X014450Y001265D01*
X014400Y001146D02*
X014534Y001146D01*
X014627Y001028D02*
X014307Y001028D01*
X013627Y001028D02*
X013307Y001028D01*
X013400Y001146D02*
X013534Y001146D01*
X013485Y001265D02*
X013450Y001265D01*
X013457Y001383D02*
X013477Y001383D01*
X013487Y001502D02*
X013447Y001502D01*
X013398Y001620D02*
X013536Y001620D01*
X013632Y001739D02*
X013302Y001739D01*
X012632Y001739D02*
X012333Y001739D01*
X012430Y001620D02*
X012536Y001620D01*
X012487Y001502D02*
X012479Y001502D01*
X012483Y001269D02*
X012552Y001103D01*
X012641Y001014D01*
X012325Y001014D01*
X012414Y001103D01*
X012483Y001269D01*
X012481Y001265D02*
X012485Y001265D01*
X012534Y001146D02*
X012432Y001146D01*
X012339Y001028D02*
X012627Y001028D01*
X011658Y001028D02*
X011339Y001028D01*
X011432Y001146D02*
X011565Y001146D01*
X011516Y001265D02*
X011481Y001265D01*
X011489Y001383D02*
X011509Y001383D01*
X011518Y001502D02*
X011479Y001502D01*
X011430Y001620D02*
X011568Y001620D01*
X011664Y001739D02*
X011333Y001739D01*
X010664Y001739D02*
X010333Y001739D01*
X010430Y001620D02*
X010568Y001620D01*
X010518Y001502D02*
X010479Y001502D01*
X010489Y001383D02*
X010509Y001383D01*
X010516Y001265D02*
X010481Y001265D01*
X010432Y001146D02*
X010565Y001146D01*
X010658Y001028D02*
X010339Y001028D01*
X009658Y001028D02*
X009339Y001028D01*
X009432Y001146D02*
X009565Y001146D01*
X009516Y001265D02*
X009481Y001265D01*
X009489Y001383D02*
X009509Y001383D01*
X009518Y001502D02*
X009479Y001502D01*
X009430Y001620D02*
X009568Y001620D01*
X009664Y001739D02*
X009333Y001739D01*
X008664Y001739D02*
X008333Y001739D01*
X008430Y001620D02*
X008568Y001620D01*
X008518Y001502D02*
X008479Y001502D01*
X008489Y001383D02*
X008509Y001383D01*
X008516Y001265D02*
X008481Y001265D01*
X008432Y001146D02*
X008565Y001146D01*
X008658Y001028D02*
X008339Y001028D01*
X007658Y001028D02*
X007339Y001028D01*
X007432Y001146D02*
X007565Y001146D01*
X007516Y001265D02*
X007481Y001265D01*
X007489Y001383D02*
X007509Y001383D01*
X007518Y001502D02*
X007479Y001502D01*
X007430Y001620D02*
X007568Y001620D01*
X007664Y001739D02*
X007333Y001739D01*
X006664Y001739D02*
X006333Y001739D01*
X006430Y001620D02*
X006568Y001620D01*
X006518Y001502D02*
X006479Y001502D01*
X006489Y001383D02*
X006509Y001383D01*
X006516Y001265D02*
X006481Y001265D01*
X006432Y001146D02*
X006565Y001146D01*
X006658Y001028D02*
X006339Y001028D01*
X005658Y001028D02*
X005339Y001028D01*
X005432Y001146D02*
X005565Y001146D01*
X005516Y001265D02*
X005481Y001265D01*
X005489Y001383D02*
X005509Y001383D01*
X005518Y001502D02*
X005479Y001502D01*
X005430Y001620D02*
X005568Y001620D01*
X005664Y001739D02*
X005333Y001739D01*
X004664Y001739D02*
X004333Y001739D01*
X004430Y001620D02*
X004568Y001620D01*
X004518Y001502D02*
X004479Y001502D01*
X004489Y001383D02*
X004509Y001383D01*
X004516Y001265D02*
X004481Y001265D01*
X004432Y001146D02*
X004565Y001146D01*
X004658Y001028D02*
X004339Y001028D01*
X003658Y001028D02*
X003339Y001028D01*
X003432Y001146D02*
X003565Y001146D01*
X003516Y001265D02*
X003481Y001265D01*
X003489Y001383D02*
X003509Y001383D01*
X003518Y001502D02*
X003479Y001502D01*
X003430Y001620D02*
X003568Y001620D01*
X003664Y001739D02*
X003333Y001739D01*
X002664Y001739D02*
X002333Y001739D01*
X002430Y001620D02*
X002568Y001620D01*
X002518Y001502D02*
X002479Y001502D01*
X002489Y001383D02*
X002509Y001383D01*
X002516Y001265D02*
X002481Y001265D01*
X002432Y001146D02*
X002565Y001146D01*
X002658Y001028D02*
X002339Y001028D01*
X001658Y001028D02*
X001339Y001028D01*
X000869Y001857D02*
X000817Y001857D01*
X000817Y001976D02*
X024208Y001976D01*
X024208Y002094D02*
X000817Y002094D01*
X000817Y002213D02*
X024208Y002213D01*
X024208Y002331D02*
X000817Y002331D01*
X000817Y002450D02*
X024208Y002450D01*
X024208Y002568D02*
X000817Y002568D01*
X000817Y002687D02*
X024208Y002687D01*
X024208Y002805D02*
X000817Y002805D01*
X000817Y002924D02*
X024208Y002924D01*
X024208Y003042D02*
X000817Y003042D01*
X000817Y003161D02*
X024208Y003161D01*
X024208Y003279D02*
X000817Y003279D01*
X000817Y003398D02*
X024208Y003398D01*
X024208Y003516D02*
X000817Y003516D01*
X000817Y003635D02*
X024208Y003635D01*
X024208Y003753D02*
X000817Y003753D01*
X000817Y003872D02*
X024208Y003872D01*
X024208Y003990D02*
X000817Y003990D01*
X000817Y004109D02*
X024208Y004109D01*
X024208Y004227D02*
X023522Y004227D01*
X023530Y004235D02*
X023448Y004153D01*
X022935Y004153D01*
X022853Y004235D01*
X022853Y004747D01*
X022935Y004829D01*
X023448Y004829D01*
X023530Y004747D01*
X023530Y004235D01*
X023530Y004346D02*
X024208Y004346D01*
X024208Y004464D02*
X023530Y004464D01*
X023530Y004583D02*
X024208Y004583D01*
X024208Y004701D02*
X023530Y004701D01*
X023457Y004820D02*
X024208Y004820D01*
X024208Y004938D02*
X000817Y004938D01*
X000817Y005057D02*
X024208Y005057D01*
X024208Y005175D02*
X000817Y005175D01*
X000817Y005294D02*
X024208Y005294D01*
X024208Y005412D02*
X000817Y005412D01*
X000817Y005531D02*
X024208Y005531D01*
X024208Y005649D02*
X000817Y005649D01*
X000817Y005768D02*
X024208Y005768D01*
X024208Y005886D02*
X000817Y005886D01*
X000817Y006005D02*
X024208Y006005D01*
X024208Y006123D02*
X000817Y006123D01*
X000817Y006242D02*
X024208Y006242D01*
X024208Y006360D02*
X000817Y006360D01*
X000817Y006479D02*
X024208Y006479D01*
X024208Y006597D02*
X000817Y006597D01*
X000817Y006716D02*
X024208Y006716D01*
X024208Y006834D02*
X000817Y006834D01*
X001280Y006953D02*
X001718Y006953D01*
X001721Y006949D02*
X001901Y006875D01*
X002096Y006875D01*
X002276Y006949D01*
X002414Y007087D01*
X002489Y007267D01*
X002489Y007462D01*
X002414Y007642D01*
X002276Y007780D01*
X002096Y007855D01*
X001901Y007855D01*
X001721Y007780D01*
X001583Y007642D01*
X001509Y007462D01*
X001509Y007267D01*
X001583Y007087D01*
X001721Y006949D01*
X001599Y007071D02*
X001398Y007071D01*
X001456Y007190D02*
X001541Y007190D01*
X001509Y007308D02*
X001489Y007308D01*
X001489Y007427D02*
X001509Y007427D01*
X001543Y007545D02*
X001454Y007545D01*
X001393Y007664D02*
X001605Y007664D01*
X001726Y007782D02*
X001271Y007782D01*
X002271Y007782D02*
X002726Y007782D01*
X002721Y007780D02*
X002583Y007642D01*
X002509Y007462D01*
X002509Y007267D01*
X002583Y007087D01*
X002721Y006949D01*
X002901Y006875D01*
X003096Y006875D01*
X003276Y006949D01*
X003414Y007087D01*
X003489Y007267D01*
X003489Y007462D01*
X003414Y007642D01*
X003276Y007780D01*
X003096Y007855D01*
X002901Y007855D01*
X002721Y007780D01*
X002605Y007664D02*
X002393Y007664D01*
X002454Y007545D02*
X002543Y007545D01*
X002509Y007427D02*
X002489Y007427D01*
X002489Y007308D02*
X002509Y007308D01*
X002541Y007190D02*
X002456Y007190D01*
X002398Y007071D02*
X002599Y007071D01*
X002718Y006953D02*
X002280Y006953D01*
X003280Y006953D02*
X003718Y006953D01*
X003721Y006949D02*
X003901Y006875D01*
X004096Y006875D01*
X004276Y006949D01*
X004414Y007087D01*
X004489Y007267D01*
X004489Y007462D01*
X004414Y007642D01*
X004276Y007780D01*
X004096Y007855D01*
X003901Y007855D01*
X003721Y007780D01*
X003583Y007642D01*
X003509Y007462D01*
X003509Y007267D01*
X003583Y007087D01*
X003721Y006949D01*
X003599Y007071D02*
X003398Y007071D01*
X003456Y007190D02*
X003541Y007190D01*
X003509Y007308D02*
X003489Y007308D01*
X003489Y007427D02*
X003509Y007427D01*
X003543Y007545D02*
X003454Y007545D01*
X003393Y007664D02*
X003605Y007664D01*
X003726Y007782D02*
X003271Y007782D01*
X004271Y007782D02*
X004726Y007782D01*
X004721Y007780D02*
X004583Y007642D01*
X004509Y007462D01*
X004509Y007267D01*
X004583Y007087D01*
X004721Y006949D01*
X004901Y006875D01*
X005096Y006875D01*
X005276Y006949D01*
X005414Y007087D01*
X005489Y007267D01*
X005489Y007462D01*
X005414Y007642D01*
X005276Y007780D01*
X005096Y007855D01*
X004901Y007855D01*
X004721Y007780D01*
X004605Y007664D02*
X004393Y007664D01*
X004454Y007545D02*
X004543Y007545D01*
X004509Y007427D02*
X004489Y007427D01*
X004489Y007308D02*
X004509Y007308D01*
X004541Y007190D02*
X004456Y007190D01*
X004398Y007071D02*
X004599Y007071D01*
X004718Y006953D02*
X004280Y006953D01*
X005280Y006953D02*
X005718Y006953D01*
X005721Y006949D02*
X005901Y006875D01*
X006096Y006875D01*
X006276Y006949D01*
X006414Y007087D01*
X006489Y007267D01*
X006489Y007462D01*
X006414Y007642D01*
X006276Y007780D01*
X006096Y007855D01*
X005901Y007855D01*
X005721Y007780D01*
X005583Y007642D01*
X005509Y007462D01*
X005509Y007267D01*
X005583Y007087D01*
X005721Y006949D01*
X005599Y007071D02*
X005398Y007071D01*
X005456Y007190D02*
X005541Y007190D01*
X005509Y007308D02*
X005489Y007308D01*
X005489Y007427D02*
X005509Y007427D01*
X005543Y007545D02*
X005454Y007545D01*
X005393Y007664D02*
X005605Y007664D01*
X005726Y007782D02*
X005271Y007782D01*
X006271Y007782D02*
X006726Y007782D01*
X006721Y007780D02*
X006583Y007642D01*
X006509Y007462D01*
X006509Y007267D01*
X006583Y007087D01*
X006721Y006949D01*
X006901Y006875D01*
X007096Y006875D01*
X007276Y006949D01*
X007414Y007087D01*
X007489Y007267D01*
X007489Y007462D01*
X007414Y007642D01*
X007276Y007780D01*
X007096Y007855D01*
X006901Y007855D01*
X006721Y007780D01*
X006605Y007664D02*
X006393Y007664D01*
X006454Y007545D02*
X006543Y007545D01*
X006509Y007427D02*
X006489Y007427D01*
X006489Y007308D02*
X006509Y007308D01*
X006541Y007190D02*
X006456Y007190D01*
X006398Y007071D02*
X006599Y007071D01*
X006718Y006953D02*
X006280Y006953D01*
X007280Y006953D02*
X007718Y006953D01*
X007721Y006949D02*
X007901Y006875D01*
X008096Y006875D01*
X008276Y006949D01*
X008414Y007087D01*
X008489Y007267D01*
X008489Y007462D01*
X008414Y007642D01*
X008276Y007780D01*
X008096Y007855D01*
X007901Y007855D01*
X007721Y007780D01*
X007583Y007642D01*
X007509Y007462D01*
X007509Y007267D01*
X007583Y007087D01*
X007721Y006949D01*
X007599Y007071D02*
X007398Y007071D01*
X007456Y007190D02*
X007541Y007190D01*
X007509Y007308D02*
X007489Y007308D01*
X007489Y007427D02*
X007509Y007427D01*
X007543Y007545D02*
X007454Y007545D01*
X007393Y007664D02*
X007605Y007664D01*
X007726Y007782D02*
X007271Y007782D01*
X008271Y007782D02*
X008726Y007782D01*
X008721Y007780D02*
X008583Y007642D01*
X008509Y007462D01*
X008509Y007267D01*
X008583Y007087D01*
X008721Y006949D01*
X008901Y006875D01*
X009096Y006875D01*
X009276Y006949D01*
X009414Y007087D01*
X009489Y007267D01*
X009489Y007462D01*
X009414Y007642D01*
X009276Y007780D01*
X009096Y007855D01*
X008901Y007855D01*
X008721Y007780D01*
X008605Y007664D02*
X008393Y007664D01*
X008454Y007545D02*
X008543Y007545D01*
X008509Y007427D02*
X008489Y007427D01*
X008489Y007308D02*
X008509Y007308D01*
X008541Y007190D02*
X008456Y007190D01*
X008398Y007071D02*
X008599Y007071D01*
X008718Y006953D02*
X008280Y006953D01*
X009280Y006953D02*
X009718Y006953D01*
X009721Y006949D02*
X009901Y006875D01*
X010096Y006875D01*
X010276Y006949D01*
X010414Y007087D01*
X010489Y007267D01*
X010489Y007462D01*
X010414Y007642D01*
X010276Y007780D01*
X010096Y007855D01*
X009901Y007855D01*
X009721Y007780D01*
X009583Y007642D01*
X009509Y007462D01*
X009509Y007267D01*
X009583Y007087D01*
X009721Y006949D01*
X009599Y007071D02*
X009398Y007071D01*
X009456Y007190D02*
X009541Y007190D01*
X009509Y007308D02*
X009489Y007308D01*
X009489Y007427D02*
X009509Y007427D01*
X009543Y007545D02*
X009454Y007545D01*
X009393Y007664D02*
X009605Y007664D01*
X009726Y007782D02*
X009271Y007782D01*
X010271Y007782D02*
X010726Y007782D01*
X010721Y007780D02*
X010583Y007642D01*
X010509Y007462D01*
X010509Y007267D01*
X010583Y007087D01*
X010721Y006949D01*
X010901Y006875D01*
X011096Y006875D01*
X011276Y006949D01*
X011414Y007087D01*
X011489Y007267D01*
X011489Y007462D01*
X011414Y007642D01*
X011276Y007780D01*
X011096Y007855D01*
X010901Y007855D01*
X010721Y007780D01*
X010605Y007664D02*
X010393Y007664D01*
X010454Y007545D02*
X010543Y007545D01*
X010509Y007427D02*
X010489Y007427D01*
X010489Y007308D02*
X010509Y007308D01*
X010541Y007190D02*
X010456Y007190D01*
X010398Y007071D02*
X010599Y007071D01*
X010718Y006953D02*
X010280Y006953D01*
X011280Y006953D02*
X011718Y006953D01*
X011721Y006949D02*
X011901Y006875D01*
X012096Y006875D01*
X012276Y006949D01*
X012414Y007087D01*
X012483Y007253D01*
X012552Y007087D01*
X012690Y006949D01*
X012870Y006875D01*
X013065Y006875D01*
X013245Y006949D01*
X013382Y007087D01*
X013457Y007267D01*
X013457Y007462D01*
X013382Y007642D01*
X013245Y007780D01*
X013065Y007855D01*
X012870Y007855D01*
X012690Y007780D01*
X012552Y007642D01*
X012483Y007476D01*
X012414Y007642D01*
X012276Y007780D01*
X012096Y007855D01*
X011901Y007855D01*
X011721Y007780D01*
X011583Y007642D01*
X011509Y007462D01*
X011509Y007267D01*
X011583Y007087D01*
X011721Y006949D01*
X011599Y007071D02*
X011398Y007071D01*
X011456Y007190D02*
X011541Y007190D01*
X011509Y007308D02*
X011489Y007308D01*
X011489Y007427D02*
X011509Y007427D01*
X011543Y007545D02*
X011454Y007545D01*
X011393Y007664D02*
X011605Y007664D01*
X011726Y007782D02*
X011271Y007782D01*
X012271Y007782D02*
X012695Y007782D01*
X012573Y007664D02*
X012393Y007664D01*
X012454Y007545D02*
X012511Y007545D01*
X013240Y007782D02*
X013695Y007782D01*
X013690Y007780D02*
X013552Y007642D01*
X013477Y007462D01*
X013477Y007267D01*
X013552Y007087D01*
X013690Y006949D01*
X013870Y006875D01*
X014065Y006875D01*
X014245Y006949D01*
X014382Y007087D01*
X014457Y007267D01*
X014457Y007462D01*
X014382Y007642D01*
X014245Y007780D01*
X014065Y007855D01*
X013870Y007855D01*
X013690Y007780D01*
X013573Y007664D02*
X013361Y007664D01*
X013423Y007545D02*
X013511Y007545D01*
X013477Y007427D02*
X013457Y007427D01*
X013457Y007308D02*
X013477Y007308D01*
X013509Y007190D02*
X013425Y007190D01*
X013367Y007071D02*
X013568Y007071D01*
X013686Y006953D02*
X013248Y006953D01*
X012686Y006953D02*
X012280Y006953D01*
X012398Y007071D02*
X012568Y007071D01*
X012509Y007190D02*
X012456Y007190D01*
X014248Y006953D02*
X014686Y006953D01*
X014690Y006949D02*
X014870Y006875D01*
X015065Y006875D01*
X015245Y006949D01*
X015382Y007087D01*
X015457Y007267D01*
X015457Y007462D01*
X015382Y007642D01*
X015245Y007780D01*
X015065Y007855D01*
X014870Y007855D01*
X014690Y007780D01*
X014552Y007642D01*
X014477Y007462D01*
X014477Y007267D01*
X014552Y007087D01*
X014690Y006949D01*
X014568Y007071D02*
X014367Y007071D01*
X014425Y007190D02*
X014509Y007190D01*
X014477Y007308D02*
X014457Y007308D01*
X014457Y007427D02*
X014477Y007427D01*
X014511Y007545D02*
X014423Y007545D01*
X014361Y007664D02*
X014573Y007664D01*
X014695Y007782D02*
X014240Y007782D01*
X015240Y007782D02*
X015695Y007782D01*
X015690Y007780D02*
X015552Y007642D01*
X015477Y007462D01*
X015477Y007267D01*
X015552Y007087D01*
X015690Y006949D01*
X015870Y006875D01*
X016065Y006875D01*
X016245Y006949D01*
X016382Y007087D01*
X016457Y007267D01*
X016457Y007462D01*
X016382Y007642D01*
X016245Y007780D01*
X016065Y007855D01*
X015870Y007855D01*
X015690Y007780D01*
X015573Y007664D02*
X015361Y007664D01*
X015423Y007545D02*
X015511Y007545D01*
X015477Y007427D02*
X015457Y007427D01*
X015457Y007308D02*
X015477Y007308D01*
X015509Y007190D02*
X015425Y007190D01*
X015367Y007071D02*
X015568Y007071D01*
X015686Y006953D02*
X015248Y006953D01*
X016248Y006953D02*
X016686Y006953D01*
X016690Y006949D02*
X016870Y006875D01*
X017065Y006875D01*
X017245Y006949D01*
X017382Y007087D01*
X017457Y007267D01*
X017457Y007462D01*
X017382Y007642D01*
X017245Y007780D01*
X017065Y007855D01*
X016870Y007855D01*
X016690Y007780D01*
X016552Y007642D01*
X016477Y007462D01*
X016477Y007267D01*
X016552Y007087D01*
X016690Y006949D01*
X016568Y007071D02*
X016367Y007071D01*
X016425Y007190D02*
X016509Y007190D01*
X016477Y007308D02*
X016457Y007308D01*
X016457Y007427D02*
X016477Y007427D01*
X016511Y007545D02*
X016423Y007545D01*
X016361Y007664D02*
X016573Y007664D01*
X016695Y007782D02*
X016240Y007782D01*
X017240Y007782D02*
X017695Y007782D01*
X017690Y007780D02*
X017552Y007642D01*
X017477Y007462D01*
X017477Y007267D01*
X017552Y007087D01*
X017690Y006949D01*
X017870Y006875D01*
X018065Y006875D01*
X018245Y006949D01*
X018382Y007087D01*
X018457Y007267D01*
X018457Y007462D01*
X018382Y007642D01*
X018245Y007780D01*
X018065Y007855D01*
X017870Y007855D01*
X017690Y007780D01*
X017573Y007664D02*
X017361Y007664D01*
X017423Y007545D02*
X017511Y007545D01*
X017477Y007427D02*
X017457Y007427D01*
X017457Y007308D02*
X017477Y007308D01*
X017509Y007190D02*
X017425Y007190D01*
X017367Y007071D02*
X017568Y007071D01*
X017686Y006953D02*
X017248Y006953D01*
X018248Y006953D02*
X018686Y006953D01*
X018690Y006949D02*
X018870Y006875D01*
X019065Y006875D01*
X019245Y006949D01*
X019382Y007087D01*
X019457Y007267D01*
X019457Y007462D01*
X019382Y007642D01*
X019245Y007780D01*
X019065Y007855D01*
X018870Y007855D01*
X018690Y007780D01*
X018552Y007642D01*
X018477Y007462D01*
X018477Y007267D01*
X018552Y007087D01*
X018690Y006949D01*
X018568Y007071D02*
X018367Y007071D01*
X018425Y007190D02*
X018509Y007190D01*
X018477Y007308D02*
X018457Y007308D01*
X018457Y007427D02*
X018477Y007427D01*
X018511Y007545D02*
X018423Y007545D01*
X018361Y007664D02*
X018573Y007664D01*
X018695Y007782D02*
X018240Y007782D01*
X019240Y007782D02*
X019695Y007782D01*
X019690Y007780D02*
X019552Y007642D01*
X019477Y007462D01*
X019477Y007267D01*
X019552Y007087D01*
X019690Y006949D01*
X019870Y006875D01*
X020065Y006875D01*
X020245Y006949D01*
X020382Y007087D01*
X020457Y007267D01*
X020457Y007462D01*
X020382Y007642D01*
X020245Y007780D01*
X020065Y007855D01*
X019870Y007855D01*
X019690Y007780D01*
X019573Y007664D02*
X019361Y007664D01*
X019423Y007545D02*
X019511Y007545D01*
X019477Y007427D02*
X019457Y007427D01*
X019457Y007308D02*
X019477Y007308D01*
X019509Y007190D02*
X019425Y007190D01*
X019367Y007071D02*
X019568Y007071D01*
X019686Y006953D02*
X019248Y006953D01*
X020248Y006953D02*
X020686Y006953D01*
X020690Y006949D02*
X020870Y006875D01*
X021065Y006875D01*
X021245Y006949D01*
X021382Y007087D01*
X021457Y007267D01*
X021457Y007462D01*
X021382Y007642D01*
X021245Y007780D01*
X021065Y007855D01*
X020870Y007855D01*
X020690Y007780D01*
X020552Y007642D01*
X020477Y007462D01*
X020477Y007267D01*
X020552Y007087D01*
X020690Y006949D01*
X020568Y007071D02*
X020367Y007071D01*
X020425Y007190D02*
X020509Y007190D01*
X020477Y007308D02*
X020457Y007308D01*
X020457Y007427D02*
X020477Y007427D01*
X020511Y007545D02*
X020423Y007545D01*
X020361Y007664D02*
X020573Y007664D01*
X020695Y007782D02*
X020240Y007782D01*
X021240Y007782D02*
X021695Y007782D01*
X021690Y007780D02*
X021552Y007642D01*
X021477Y007462D01*
X021477Y007267D01*
X021552Y007087D01*
X021690Y006949D01*
X021870Y006875D01*
X022065Y006875D01*
X022245Y006949D01*
X022382Y007087D01*
X022457Y007267D01*
X022457Y007462D01*
X022382Y007642D01*
X022245Y007780D01*
X022065Y007855D01*
X021870Y007855D01*
X021690Y007780D01*
X021573Y007664D02*
X021361Y007664D01*
X021423Y007545D02*
X021511Y007545D01*
X021477Y007427D02*
X021457Y007427D01*
X021457Y007308D02*
X021477Y007308D01*
X021509Y007190D02*
X021425Y007190D01*
X021367Y007071D02*
X021568Y007071D01*
X021686Y006953D02*
X021248Y006953D01*
X022248Y006953D02*
X022686Y006953D01*
X022690Y006949D02*
X022870Y006875D01*
X023065Y006875D01*
X023245Y006949D01*
X023382Y007087D01*
X023457Y007267D01*
X023457Y007462D01*
X023382Y007642D01*
X023245Y007780D01*
X023065Y007855D01*
X022870Y007855D01*
X022690Y007780D01*
X022552Y007642D01*
X022477Y007462D01*
X022477Y007267D01*
X022552Y007087D01*
X022690Y006949D01*
X022568Y007071D02*
X022367Y007071D01*
X022425Y007190D02*
X022509Y007190D01*
X022477Y007308D02*
X022457Y007308D01*
X022457Y007427D02*
X022477Y007427D01*
X022511Y007545D02*
X022423Y007545D01*
X022361Y007664D02*
X022573Y007664D01*
X022695Y007782D02*
X022240Y007782D01*
X023240Y007782D02*
X023695Y007782D01*
X023573Y007664D02*
X023361Y007664D01*
X023423Y007545D02*
X023511Y007545D01*
X023477Y007427D02*
X023457Y007427D01*
X023457Y007308D02*
X023477Y007308D01*
X023509Y007190D02*
X023425Y007190D01*
X023367Y007071D02*
X023568Y007071D01*
X023686Y006953D02*
X023248Y006953D01*
X022926Y004820D02*
X002197Y004820D01*
X002188Y004829D02*
X001676Y004829D01*
X001594Y004747D01*
X001594Y004235D01*
X001676Y004153D01*
X002188Y004153D01*
X002270Y004235D01*
X002270Y004747D01*
X002188Y004829D01*
X002270Y004701D02*
X022853Y004701D01*
X022853Y004583D02*
X002270Y004583D01*
X002270Y004464D02*
X022853Y004464D01*
X022853Y004346D02*
X002270Y004346D01*
X002262Y004227D02*
X022861Y004227D01*
X022838Y001857D02*
X022097Y001857D01*
X021838Y001857D02*
X021097Y001857D01*
X020838Y001857D02*
X020097Y001857D01*
X019838Y001857D02*
X019097Y001857D01*
X019302Y001739D02*
X019632Y001739D01*
X019536Y001620D02*
X019398Y001620D01*
X019447Y001502D02*
X019487Y001502D01*
X019477Y001383D02*
X019457Y001383D01*
X019450Y001265D02*
X019485Y001265D01*
X019534Y001146D02*
X019400Y001146D01*
X019307Y001028D02*
X019627Y001028D01*
X020307Y001028D02*
X020627Y001028D01*
X020534Y001146D02*
X020400Y001146D01*
X020450Y001265D02*
X020485Y001265D01*
X020477Y001383D02*
X020457Y001383D01*
X020447Y001502D02*
X020487Y001502D01*
X020536Y001620D02*
X020398Y001620D01*
X020302Y001739D02*
X020632Y001739D01*
X021302Y001739D02*
X021632Y001739D01*
X021536Y001620D02*
X021398Y001620D01*
X021447Y001502D02*
X021487Y001502D01*
X021477Y001383D02*
X021457Y001383D01*
X021450Y001265D02*
X021485Y001265D01*
X021534Y001146D02*
X021400Y001146D01*
X021307Y001028D02*
X021627Y001028D01*
X022307Y001028D02*
X022627Y001028D01*
X022534Y001146D02*
X022400Y001146D01*
X022450Y001265D02*
X022485Y001265D01*
X022477Y001383D02*
X022457Y001383D01*
X022447Y001502D02*
X022487Y001502D01*
X022536Y001620D02*
X022398Y001620D01*
X022302Y001739D02*
X022632Y001739D01*
X023097Y001857D02*
X023838Y001857D01*
X024097Y001857D02*
X024208Y001857D01*
X023632Y001739D02*
X023302Y001739D01*
X023398Y001620D02*
X023536Y001620D01*
X023487Y001502D02*
X023447Y001502D01*
X023457Y001383D02*
X023477Y001383D01*
X023485Y001265D02*
X023450Y001265D01*
X023400Y001146D02*
X023534Y001146D01*
X023627Y001028D02*
X023307Y001028D01*
X024928Y000164D02*
X024963Y000198D01*
X024963Y000198D01*
X024963Y000160D01*
X024919Y000160D01*
X024928Y000164D01*
X001601Y004227D02*
X000817Y004227D01*
X000817Y004346D02*
X001594Y004346D01*
X001594Y004464D02*
X000817Y004464D01*
X000817Y004583D02*
X001594Y004583D01*
X001594Y004701D02*
X000817Y004701D01*
X000817Y004820D02*
X001666Y004820D01*
D12*
X001932Y004491D03*
X023191Y004491D03*
M02*
