G75*
%MOIN*%
%OFA0B0*%
%FSLAX24Y24*%
%IPPOS*%
%LPD*%
%AMOC8*
5,1,8,0,0,1.08239X$1,22.5*
%
%ADD10R,0.0110X0.0410*%
%ADD11C,0.0700*%
%ADD12C,0.0100*%
%ADD13R,0.0396X0.0396*%
D10*
G36*
X010840Y003652D02*
X010763Y003729D01*
X011052Y004018D01*
X011129Y003941D01*
X010840Y003652D01*
G37*
G36*
X010981Y003510D02*
X010904Y003587D01*
X011193Y003876D01*
X011270Y003799D01*
X010981Y003510D01*
G37*
G36*
X011115Y003376D02*
X011038Y003453D01*
X011327Y003742D01*
X011404Y003665D01*
X011115Y003376D01*
G37*
G36*
X011257Y003235D02*
X011180Y003312D01*
X011469Y003601D01*
X011546Y003524D01*
X011257Y003235D01*
G37*
G36*
X011398Y003093D02*
X011321Y003170D01*
X011610Y003459D01*
X011687Y003382D01*
X011398Y003093D01*
G37*
G36*
X011540Y002952D02*
X011463Y003029D01*
X011752Y003318D01*
X011829Y003241D01*
X011540Y002952D01*
G37*
G36*
X011674Y002817D02*
X011597Y002894D01*
X011886Y003183D01*
X011963Y003106D01*
X011674Y002817D01*
G37*
G36*
X011815Y002676D02*
X011738Y002753D01*
X012027Y003042D01*
X012104Y002965D01*
X011815Y002676D01*
G37*
G36*
X011957Y002534D02*
X011880Y002611D01*
X012169Y002900D01*
X012246Y002823D01*
X011957Y002534D01*
G37*
G36*
X012091Y002400D02*
X012014Y002477D01*
X012303Y002766D01*
X012380Y002689D01*
X012091Y002400D01*
G37*
G36*
X012806Y002689D02*
X012883Y002766D01*
X013172Y002477D01*
X013095Y002400D01*
X012806Y002689D01*
G37*
G36*
X012940Y002823D02*
X013017Y002900D01*
X013306Y002611D01*
X013229Y002534D01*
X012940Y002823D01*
G37*
G36*
X013082Y002965D02*
X013159Y003042D01*
X013448Y002753D01*
X013371Y002676D01*
X013082Y002965D01*
G37*
G36*
X013223Y003106D02*
X013300Y003183D01*
X013589Y002894D01*
X013512Y002817D01*
X013223Y003106D01*
G37*
G36*
X013358Y003241D02*
X013435Y003318D01*
X013724Y003029D01*
X013647Y002952D01*
X013358Y003241D01*
G37*
G36*
X013499Y003382D02*
X013576Y003459D01*
X013865Y003170D01*
X013788Y003093D01*
X013499Y003382D01*
G37*
G36*
X013640Y003524D02*
X013717Y003601D01*
X014006Y003312D01*
X013929Y003235D01*
X013640Y003524D01*
G37*
G36*
X013782Y003665D02*
X013859Y003742D01*
X014148Y003453D01*
X014071Y003376D01*
X013782Y003665D01*
G37*
G36*
X013916Y003799D02*
X013993Y003876D01*
X014282Y003587D01*
X014205Y003510D01*
X013916Y003799D01*
G37*
G36*
X014058Y003941D02*
X014135Y004018D01*
X014424Y003729D01*
X014347Y003652D01*
X014058Y003941D01*
G37*
G36*
X014199Y004082D02*
X014276Y004159D01*
X014565Y003870D01*
X014488Y003793D01*
X014199Y004082D01*
G37*
G36*
X014333Y004216D02*
X014410Y004293D01*
X014699Y004004D01*
X014622Y003927D01*
X014333Y004216D01*
G37*
G36*
X014410Y004719D02*
X014333Y004796D01*
X014622Y005085D01*
X014699Y005008D01*
X014410Y004719D01*
G37*
G36*
X014276Y004854D02*
X014199Y004931D01*
X014488Y005220D01*
X014565Y005143D01*
X014276Y004854D01*
G37*
G36*
X014135Y004995D02*
X014058Y005072D01*
X014347Y005361D01*
X014424Y005284D01*
X014135Y004995D01*
G37*
G36*
X013993Y005137D02*
X013916Y005214D01*
X014205Y005503D01*
X014282Y005426D01*
X013993Y005137D01*
G37*
G36*
X013859Y005271D02*
X013782Y005348D01*
X014071Y005637D01*
X014148Y005560D01*
X013859Y005271D01*
G37*
G36*
X013717Y005412D02*
X013640Y005489D01*
X013929Y005778D01*
X014006Y005701D01*
X013717Y005412D01*
G37*
G36*
X013576Y005554D02*
X013499Y005631D01*
X013788Y005920D01*
X013865Y005843D01*
X013576Y005554D01*
G37*
G36*
X013435Y005695D02*
X013358Y005772D01*
X013647Y006061D01*
X013724Y005984D01*
X013435Y005695D01*
G37*
G36*
X013300Y005830D02*
X013223Y005907D01*
X013512Y006196D01*
X013589Y006119D01*
X013300Y005830D01*
G37*
G36*
X013159Y005971D02*
X013082Y006048D01*
X013371Y006337D01*
X013448Y006260D01*
X013159Y005971D01*
G37*
G36*
X013017Y006112D02*
X012940Y006189D01*
X013229Y006478D01*
X013306Y006401D01*
X013017Y006112D01*
G37*
G36*
X011880Y006401D02*
X011957Y006478D01*
X012246Y006189D01*
X012169Y006112D01*
X011880Y006401D01*
G37*
G36*
X012014Y006536D02*
X012091Y006613D01*
X012380Y006324D01*
X012303Y006247D01*
X012014Y006536D01*
G37*
G36*
X011738Y006260D02*
X011815Y006337D01*
X012104Y006048D01*
X012027Y005971D01*
X011738Y006260D01*
G37*
G36*
X011597Y006119D02*
X011674Y006196D01*
X011963Y005907D01*
X011886Y005830D01*
X011597Y006119D01*
G37*
G36*
X011463Y005984D02*
X011540Y006061D01*
X011829Y005772D01*
X011752Y005695D01*
X011463Y005984D01*
G37*
G36*
X011321Y005843D02*
X011398Y005920D01*
X011687Y005631D01*
X011610Y005554D01*
X011321Y005843D01*
G37*
G36*
X011180Y005701D02*
X011257Y005778D01*
X011546Y005489D01*
X011469Y005412D01*
X011180Y005701D01*
G37*
G36*
X011038Y005560D02*
X011115Y005637D01*
X011404Y005348D01*
X011327Y005271D01*
X011038Y005560D01*
G37*
G36*
X010904Y005426D02*
X010981Y005503D01*
X011270Y005214D01*
X011193Y005137D01*
X010904Y005426D01*
G37*
G36*
X010763Y005284D02*
X010840Y005361D01*
X011129Y005072D01*
X011052Y004995D01*
X010763Y005284D01*
G37*
G36*
X010621Y005143D02*
X010698Y005220D01*
X010987Y004931D01*
X010910Y004854D01*
X010621Y005143D01*
G37*
G36*
X010487Y005008D02*
X010564Y005085D01*
X010853Y004796D01*
X010776Y004719D01*
X010487Y005008D01*
G37*
G36*
X010564Y003927D02*
X010487Y004004D01*
X010776Y004293D01*
X010853Y004216D01*
X010564Y003927D01*
G37*
G36*
X010698Y003793D02*
X010621Y003870D01*
X010910Y004159D01*
X010987Y004082D01*
X010698Y003793D01*
G37*
G36*
X012883Y006247D02*
X012806Y006324D01*
X013095Y006613D01*
X013172Y006536D01*
X012883Y006247D01*
G37*
D11*
X012967Y007365D03*
X011999Y007365D03*
X010999Y007365D03*
X009999Y007365D03*
X008999Y007365D03*
X007999Y007365D03*
X006999Y007365D03*
X005999Y007365D03*
X004999Y007365D03*
X003999Y007365D03*
X002999Y007365D03*
X001999Y007365D03*
X000999Y007365D03*
X013967Y007365D03*
X014967Y007365D03*
X015967Y007365D03*
X016967Y007365D03*
X017967Y007365D03*
X018967Y007365D03*
X019967Y007365D03*
X020967Y007365D03*
X021967Y007365D03*
X022967Y007365D03*
X023967Y007365D03*
X023967Y001380D03*
X022967Y001380D03*
X021967Y001380D03*
X020967Y001380D03*
X019967Y001380D03*
X018967Y001380D03*
X017967Y001380D03*
X016967Y001380D03*
X015967Y001380D03*
X014967Y001380D03*
X013967Y001380D03*
X012967Y001380D03*
X011999Y001380D03*
X010999Y001380D03*
X009999Y001380D03*
X008999Y001380D03*
X007999Y001380D03*
X006999Y001380D03*
X005999Y001380D03*
X004999Y001380D03*
X003999Y001380D03*
X002999Y001380D03*
X001999Y001380D03*
X000999Y001380D03*
D12*
X001301Y001004D02*
X001406Y001109D01*
X001479Y001285D01*
X001479Y001476D01*
X001441Y001568D01*
X003435Y003563D01*
X003926Y003563D01*
X002186Y001822D01*
X002094Y001860D01*
X001903Y001860D01*
X001727Y001787D01*
X001592Y001652D01*
X001519Y001476D01*
X001519Y001285D01*
X001592Y001109D01*
X001697Y001004D01*
X001301Y001004D01*
X001343Y001046D02*
X001654Y001046D01*
X001577Y001145D02*
X001420Y001145D01*
X001461Y001243D02*
X001536Y001243D01*
X001519Y001342D02*
X001479Y001342D01*
X001479Y001440D02*
X001519Y001440D01*
X001545Y001539D02*
X001453Y001539D01*
X001510Y001637D02*
X001585Y001637D01*
X001608Y001736D02*
X001675Y001736D01*
X001707Y001834D02*
X001840Y001834D01*
X002157Y001834D02*
X002198Y001834D01*
X002296Y001933D02*
X001805Y001933D01*
X001904Y002031D02*
X002395Y002031D01*
X002493Y002130D02*
X002002Y002130D01*
X002101Y002228D02*
X002592Y002228D01*
X002690Y002327D02*
X002199Y002327D01*
X002298Y002425D02*
X002789Y002425D01*
X002887Y002524D02*
X002396Y002524D01*
X002495Y002622D02*
X002986Y002622D01*
X003084Y002721D02*
X002593Y002721D01*
X002692Y002819D02*
X003183Y002819D01*
X003281Y002918D02*
X002790Y002918D01*
X002889Y003016D02*
X003380Y003016D01*
X003478Y003115D02*
X002987Y003115D01*
X003086Y003213D02*
X003577Y003213D01*
X003675Y003312D02*
X003184Y003312D01*
X003283Y003410D02*
X003774Y003410D01*
X003872Y003509D02*
X003381Y003509D01*
X002971Y003607D02*
X000807Y003607D01*
X000807Y003706D02*
X003069Y003706D01*
X003168Y003804D02*
X000807Y003804D01*
X000807Y003903D02*
X003266Y003903D01*
X003286Y003923D02*
X001186Y001822D01*
X001094Y001860D01*
X000903Y001860D01*
X000807Y001821D01*
X000807Y006925D01*
X000903Y006885D01*
X001094Y006885D01*
X001186Y006923D01*
X003386Y004722D01*
X010588Y004722D01*
X010722Y004589D01*
X010830Y004589D01*
X010984Y004743D01*
X011105Y004864D01*
X011105Y004864D01*
X011259Y005018D01*
X011401Y005160D01*
X011535Y005294D01*
X011535Y005294D01*
X011677Y005435D01*
X011805Y005564D01*
X011805Y005564D01*
X011959Y005718D01*
X012094Y005853D01*
X012235Y005994D01*
X012357Y006116D01*
X012511Y006270D01*
X012511Y006378D01*
X012151Y006737D01*
X012151Y006908D01*
X012270Y006958D01*
X012406Y007093D01*
X012479Y007269D01*
X012479Y007460D01*
X012406Y007637D01*
X012270Y007772D01*
X012094Y007845D01*
X011903Y007845D01*
X011727Y007772D01*
X011592Y007637D01*
X011519Y007460D01*
X011519Y007269D01*
X011592Y007093D01*
X011727Y006958D01*
X011791Y006931D01*
X011791Y006827D01*
X011441Y007177D01*
X011479Y007269D01*
X011479Y007460D01*
X011406Y007637D01*
X011270Y007772D01*
X011094Y007845D01*
X010903Y007845D01*
X010727Y007772D01*
X010592Y007637D01*
X010519Y007460D01*
X010519Y007269D01*
X010592Y007093D01*
X010727Y006958D01*
X010903Y006885D01*
X011094Y006885D01*
X011186Y006923D01*
X011273Y006836D01*
X010782Y006836D01*
X010441Y007177D01*
X010479Y007269D01*
X010479Y007460D01*
X010406Y007637D01*
X010270Y007772D01*
X010094Y007845D01*
X009903Y007845D01*
X009727Y007772D01*
X009592Y007637D01*
X009519Y007460D01*
X009519Y007269D01*
X009592Y007093D01*
X009727Y006958D01*
X009903Y006885D01*
X010094Y006885D01*
X010186Y006923D01*
X010430Y006679D01*
X009939Y006679D01*
X009441Y007177D01*
X009479Y007269D01*
X009479Y007460D01*
X009406Y007637D01*
X009270Y007772D01*
X009094Y007845D01*
X008903Y007845D01*
X008727Y007772D01*
X008592Y007637D01*
X008519Y007460D01*
X008519Y007269D01*
X008592Y007093D01*
X008727Y006958D01*
X008903Y006885D01*
X009094Y006885D01*
X009186Y006923D01*
X009588Y006521D01*
X009097Y006521D01*
X008441Y007177D01*
X008479Y007269D01*
X008479Y007460D01*
X008406Y007637D01*
X008270Y007772D01*
X008094Y007845D01*
X007903Y007845D01*
X007727Y007772D01*
X007592Y007637D01*
X007519Y007460D01*
X007519Y007269D01*
X007592Y007093D01*
X007727Y006958D01*
X007903Y006885D01*
X008094Y006885D01*
X008186Y006923D01*
X008745Y006364D01*
X008254Y006364D01*
X007441Y007177D01*
X007479Y007269D01*
X007479Y007460D01*
X007406Y007637D01*
X007270Y007772D01*
X007094Y007845D01*
X006903Y007845D01*
X006727Y007772D01*
X006592Y007637D01*
X006519Y007460D01*
X006519Y007269D01*
X006592Y007093D01*
X006727Y006958D01*
X006903Y006885D01*
X007094Y006885D01*
X007186Y006923D01*
X007942Y006167D01*
X007451Y006167D01*
X006441Y007177D01*
X006479Y007269D01*
X006479Y007460D01*
X006406Y007637D01*
X006270Y007772D01*
X006094Y007845D01*
X005903Y007845D01*
X005727Y007772D01*
X005592Y007637D01*
X005519Y007460D01*
X005519Y007269D01*
X005592Y007093D01*
X005727Y006958D01*
X005903Y006885D01*
X006094Y006885D01*
X006186Y006923D01*
X007139Y005970D01*
X006648Y005970D01*
X005441Y007177D01*
X005479Y007269D01*
X005479Y007460D01*
X005406Y007637D01*
X005270Y007772D01*
X005094Y007845D01*
X004903Y007845D01*
X004727Y007772D01*
X004592Y007637D01*
X004519Y007460D01*
X004519Y007269D01*
X004592Y007093D01*
X004727Y006958D01*
X004903Y006885D01*
X005094Y006885D01*
X005186Y006923D01*
X006336Y005773D01*
X005845Y005773D01*
X004441Y007177D01*
X004479Y007269D01*
X004479Y007460D01*
X004406Y007637D01*
X004270Y007772D01*
X004094Y007845D01*
X003903Y007845D01*
X003727Y007772D01*
X003592Y007637D01*
X003519Y007460D01*
X003519Y007269D01*
X003592Y007093D01*
X003727Y006958D01*
X003903Y006885D01*
X004094Y006885D01*
X004186Y006923D01*
X005533Y005576D01*
X005042Y005576D01*
X003441Y007177D01*
X003479Y007269D01*
X003479Y007460D01*
X003406Y007637D01*
X003270Y007772D01*
X003094Y007845D01*
X002903Y007845D01*
X002727Y007772D01*
X002592Y007637D01*
X002519Y007460D01*
X002519Y007269D01*
X002592Y007093D01*
X002727Y006958D01*
X002903Y006885D01*
X003094Y006885D01*
X003186Y006923D01*
X004729Y005379D01*
X004238Y005379D01*
X002441Y007177D01*
X002479Y007269D01*
X002479Y007460D01*
X002406Y007637D01*
X002270Y007772D01*
X002094Y007845D01*
X001903Y007845D01*
X001727Y007772D01*
X001592Y007637D01*
X001519Y007460D01*
X001519Y007269D01*
X001592Y007093D01*
X001727Y006958D01*
X001903Y006885D01*
X002094Y006885D01*
X002186Y006923D01*
X004026Y005082D01*
X003535Y005082D01*
X001441Y007177D01*
X001479Y007269D01*
X001479Y007460D01*
X001406Y007637D01*
X001270Y007772D01*
X001094Y007845D01*
X000903Y007845D01*
X000807Y007805D01*
X000807Y007895D01*
X024218Y007895D01*
X024218Y007780D01*
X024063Y007845D01*
X023872Y007845D01*
X023695Y007772D01*
X023560Y007637D01*
X023487Y007460D01*
X023487Y007269D01*
X023525Y007177D01*
X021609Y005261D01*
X021118Y005261D01*
X022780Y006923D01*
X022872Y006885D01*
X023063Y006885D01*
X023239Y006958D01*
X023374Y007093D01*
X023447Y007269D01*
X023447Y007460D01*
X023374Y007637D01*
X023239Y007772D01*
X023063Y007845D01*
X022872Y007845D01*
X022695Y007772D01*
X022560Y007637D01*
X022487Y007460D01*
X022487Y007269D01*
X022525Y007177D01*
X020767Y005419D01*
X020276Y005419D01*
X021780Y006923D01*
X021872Y006885D01*
X022063Y006885D01*
X022239Y006958D01*
X022374Y007093D01*
X022447Y007269D01*
X022447Y007460D01*
X022374Y007637D01*
X022239Y007772D01*
X022063Y007845D01*
X021872Y007845D01*
X021695Y007772D01*
X021560Y007637D01*
X021487Y007460D01*
X021487Y007269D01*
X021525Y007177D01*
X019963Y005616D01*
X019473Y005616D01*
X020780Y006923D01*
X020872Y006885D01*
X021063Y006885D01*
X021239Y006958D01*
X021374Y007093D01*
X021447Y007269D01*
X021447Y007460D01*
X021374Y007637D01*
X021239Y007772D01*
X021063Y007845D01*
X020872Y007845D01*
X020695Y007772D01*
X020560Y007637D01*
X020487Y007460D01*
X020487Y007269D01*
X020525Y007177D01*
X019121Y005773D01*
X018630Y005773D01*
X019780Y006923D01*
X019872Y006885D01*
X020063Y006885D01*
X020239Y006958D01*
X020374Y007093D01*
X020447Y007269D01*
X020447Y007460D01*
X020374Y007637D01*
X020239Y007772D01*
X020063Y007845D01*
X019872Y007845D01*
X019695Y007772D01*
X019560Y007637D01*
X019487Y007460D01*
X019487Y007269D01*
X019525Y007177D01*
X018278Y005931D01*
X017787Y005931D01*
X018780Y006923D01*
X018872Y006885D01*
X019063Y006885D01*
X019239Y006958D01*
X019374Y007093D01*
X019447Y007269D01*
X019447Y007460D01*
X019374Y007637D01*
X019239Y007772D01*
X019063Y007845D01*
X018872Y007845D01*
X018695Y007772D01*
X018560Y007637D01*
X018487Y007460D01*
X018487Y007269D01*
X018525Y007177D01*
X017475Y006127D01*
X016984Y006127D01*
X017780Y006923D01*
X017872Y006885D01*
X018063Y006885D01*
X018239Y006958D01*
X018374Y007093D01*
X018447Y007269D01*
X018447Y007460D01*
X018374Y007637D01*
X018239Y007772D01*
X018063Y007845D01*
X017872Y007845D01*
X017695Y007772D01*
X017560Y007637D01*
X017487Y007460D01*
X017487Y007269D01*
X017525Y007177D01*
X016633Y006285D01*
X016142Y006285D01*
X016780Y006923D01*
X016872Y006885D01*
X017063Y006885D01*
X017239Y006958D01*
X017374Y007093D01*
X017447Y007269D01*
X017447Y007460D01*
X017374Y007637D01*
X017239Y007772D01*
X017063Y007845D01*
X016872Y007845D01*
X016695Y007772D01*
X016560Y007637D01*
X016487Y007460D01*
X016487Y007269D01*
X016525Y007177D01*
X015790Y006442D01*
X015299Y006442D01*
X015780Y006923D01*
X015872Y006885D01*
X016063Y006885D01*
X016239Y006958D01*
X016374Y007093D01*
X016447Y007269D01*
X016447Y007460D01*
X016374Y007637D01*
X016239Y007772D01*
X016063Y007845D01*
X015872Y007845D01*
X015695Y007772D01*
X015560Y007637D01*
X015487Y007460D01*
X015487Y007269D01*
X015525Y007177D01*
X015026Y006679D01*
X014536Y006679D01*
X014780Y006923D01*
X014872Y006885D01*
X015063Y006885D01*
X015239Y006958D01*
X015374Y007093D01*
X015447Y007269D01*
X015447Y007460D01*
X015374Y007637D01*
X015239Y007772D01*
X015063Y007845D01*
X014872Y007845D01*
X014695Y007772D01*
X014560Y007637D01*
X014487Y007460D01*
X014487Y007269D01*
X014525Y007177D01*
X014302Y006954D01*
X014230Y006954D01*
X014239Y006958D01*
X014374Y007093D01*
X014447Y007269D01*
X014447Y007460D01*
X014374Y007637D01*
X014239Y007772D01*
X014063Y007845D01*
X013872Y007845D01*
X013695Y007772D01*
X013560Y007637D01*
X013487Y007460D01*
X013487Y007269D01*
X013560Y007093D01*
X013563Y007090D01*
X013563Y007006D01*
X013411Y006854D01*
X013411Y007176D01*
X013409Y007177D01*
X013447Y007269D01*
X013447Y007460D01*
X013374Y007637D01*
X013239Y007772D01*
X013063Y007845D01*
X012872Y007845D01*
X012695Y007772D01*
X012560Y007637D01*
X012487Y007460D01*
X012487Y007269D01*
X012560Y007093D01*
X012695Y006958D01*
X012872Y006885D01*
X013051Y006885D01*
X013051Y006744D01*
X013041Y006744D01*
X012675Y006378D01*
X012675Y006270D01*
X012829Y006116D01*
X012829Y006116D01*
X012951Y005994D01*
X013092Y005853D01*
X013092Y005853D01*
X013246Y005699D01*
X013381Y005564D01*
X013522Y005423D01*
X013651Y005294D01*
X013805Y005140D01*
X013939Y005006D01*
X014081Y004864D01*
X014203Y004743D01*
X014203Y004743D01*
X014356Y004589D01*
X014464Y004589D01*
X014777Y004901D01*
X021758Y004901D01*
X023780Y006923D01*
X023872Y006885D01*
X024063Y006885D01*
X024218Y006949D01*
X024218Y001796D01*
X024063Y001860D01*
X023872Y001860D01*
X023780Y001822D01*
X021837Y003765D01*
X015116Y003765D01*
X014830Y004051D01*
X014830Y004058D01*
X014464Y004424D01*
X014356Y004424D01*
X014203Y004270D01*
X014081Y004149D01*
X014081Y004149D01*
X013927Y003995D01*
X013785Y003853D01*
X013651Y003719D01*
X013651Y003719D01*
X013510Y003577D01*
X013381Y003449D01*
X013227Y003295D01*
X013092Y003160D01*
X012951Y003019D01*
X012951Y003019D01*
X012829Y002897D01*
X012675Y002743D01*
X012675Y002635D01*
X012809Y002501D01*
X012809Y002493D01*
X013011Y002290D01*
X013011Y001860D01*
X012872Y001860D01*
X012695Y001787D01*
X012560Y001652D01*
X012487Y001476D01*
X012487Y001285D01*
X012560Y001109D01*
X012665Y001004D01*
X012301Y001004D01*
X012406Y001109D01*
X012479Y001285D01*
X012479Y001476D01*
X012406Y001652D01*
X012270Y001787D01*
X012151Y001837D01*
X012151Y002275D01*
X012511Y002635D01*
X012511Y002743D01*
X012357Y002897D01*
X012235Y003019D01*
X012081Y003173D01*
X011940Y003314D01*
X011805Y003449D01*
X011664Y003590D01*
X011535Y003719D01*
X011381Y003873D01*
X011247Y004007D01*
X011105Y004149D01*
X010984Y004270D01*
X010984Y004270D01*
X010830Y004424D01*
X010722Y004424D01*
X010588Y004290D01*
X010571Y004290D01*
X010204Y003923D01*
X003286Y003923D01*
X003361Y003743D02*
X000999Y001380D01*
X001999Y001380D02*
X004164Y003546D01*
X010396Y003546D01*
X010804Y003954D01*
X010804Y003976D01*
X010670Y004110D02*
X010646Y004110D01*
X010278Y003743D01*
X003361Y003743D01*
X002872Y003509D02*
X000807Y003509D01*
X000807Y003410D02*
X002774Y003410D01*
X002675Y003312D02*
X000807Y003312D01*
X000807Y003213D02*
X002577Y003213D01*
X002478Y003115D02*
X000807Y003115D01*
X000807Y003016D02*
X002380Y003016D01*
X002281Y002918D02*
X000807Y002918D01*
X000807Y002819D02*
X002183Y002819D01*
X002084Y002721D02*
X000807Y002721D01*
X000807Y002622D02*
X001986Y002622D01*
X001887Y002524D02*
X000807Y002524D01*
X000807Y002425D02*
X001789Y002425D01*
X001690Y002327D02*
X000807Y002327D01*
X000807Y002228D02*
X001592Y002228D01*
X001493Y002130D02*
X000807Y002130D01*
X000807Y002031D02*
X001395Y002031D01*
X001296Y001933D02*
X000807Y001933D01*
X000807Y001834D02*
X000840Y001834D01*
X001157Y001834D02*
X001198Y001834D01*
X002441Y001568D02*
X002479Y001476D01*
X002479Y001285D01*
X002406Y001109D01*
X002301Y001004D01*
X002697Y001004D01*
X002592Y001109D01*
X002519Y001285D01*
X002519Y001476D01*
X002592Y001652D01*
X002727Y001787D01*
X002903Y001860D01*
X003094Y001860D01*
X003186Y001822D01*
X004729Y003366D01*
X004238Y003366D01*
X002441Y001568D01*
X002453Y001539D02*
X002545Y001539D01*
X002519Y001440D02*
X002479Y001440D01*
X002479Y001342D02*
X002519Y001342D01*
X002536Y001243D02*
X002461Y001243D01*
X002420Y001145D02*
X002577Y001145D01*
X002654Y001046D02*
X002343Y001046D01*
X002999Y001380D02*
X004928Y003310D01*
X010436Y003310D01*
X010946Y003820D01*
X010946Y003835D01*
X011087Y003693D02*
X011087Y003685D01*
X010514Y003113D01*
X005731Y003113D01*
X003999Y001380D01*
X003519Y001342D02*
X003479Y001342D01*
X003479Y001285D02*
X003479Y001476D01*
X003441Y001568D01*
X005002Y003130D01*
X005493Y003130D01*
X004186Y001822D01*
X004094Y001860D01*
X003903Y001860D01*
X003727Y001787D01*
X003592Y001652D01*
X003519Y001476D01*
X003519Y001285D01*
X003592Y001109D01*
X003697Y001004D01*
X003301Y001004D01*
X003406Y001109D01*
X003479Y001285D01*
X003461Y001243D02*
X003536Y001243D01*
X003577Y001145D02*
X003420Y001145D01*
X003343Y001046D02*
X003654Y001046D01*
X004301Y001004D02*
X004406Y001109D01*
X004479Y001285D01*
X004479Y001476D01*
X004441Y001568D01*
X005805Y002933D01*
X006296Y002933D01*
X005186Y001822D01*
X005094Y001860D01*
X004903Y001860D01*
X004727Y001787D01*
X004592Y001652D01*
X004519Y001476D01*
X004519Y001285D01*
X004592Y001109D01*
X004697Y001004D01*
X004301Y001004D01*
X004343Y001046D02*
X004654Y001046D01*
X004577Y001145D02*
X004420Y001145D01*
X004461Y001243D02*
X004536Y001243D01*
X004519Y001342D02*
X004479Y001342D01*
X004479Y001440D02*
X004519Y001440D01*
X004545Y001539D02*
X004453Y001539D01*
X004510Y001637D02*
X004585Y001637D01*
X004608Y001736D02*
X004675Y001736D01*
X004707Y001834D02*
X004840Y001834D01*
X005157Y001834D02*
X005198Y001834D01*
X005296Y001933D02*
X004805Y001933D01*
X004904Y002031D02*
X005395Y002031D01*
X005493Y002130D02*
X005002Y002130D01*
X005101Y002228D02*
X005592Y002228D01*
X005690Y002327D02*
X005199Y002327D01*
X005298Y002425D02*
X005789Y002425D01*
X005887Y002524D02*
X005396Y002524D01*
X005495Y002622D02*
X005986Y002622D01*
X006084Y002721D02*
X005593Y002721D01*
X005692Y002819D02*
X006183Y002819D01*
X006281Y002918D02*
X005790Y002918D01*
X005478Y003115D02*
X004987Y003115D01*
X004889Y003016D02*
X005380Y003016D01*
X005281Y002918D02*
X004790Y002918D01*
X004692Y002819D02*
X005183Y002819D01*
X005084Y002721D02*
X004593Y002721D01*
X004495Y002622D02*
X004986Y002622D01*
X004887Y002524D02*
X004396Y002524D01*
X004298Y002425D02*
X004789Y002425D01*
X004690Y002327D02*
X004199Y002327D01*
X004101Y002228D02*
X004592Y002228D01*
X004493Y002130D02*
X004002Y002130D01*
X003904Y002031D02*
X004395Y002031D01*
X004296Y001933D02*
X003805Y001933D01*
X003840Y001834D02*
X003707Y001834D01*
X003675Y001736D02*
X003608Y001736D01*
X003585Y001637D02*
X003510Y001637D01*
X003545Y001539D02*
X003453Y001539D01*
X003479Y001440D02*
X003519Y001440D01*
X003198Y001834D02*
X003157Y001834D01*
X002840Y001834D02*
X002707Y001834D01*
X002675Y001736D02*
X002608Y001736D01*
X002585Y001637D02*
X002510Y001637D01*
X002805Y001933D02*
X003296Y001933D01*
X003395Y002031D02*
X002904Y002031D01*
X003002Y002130D02*
X003493Y002130D01*
X003592Y002228D02*
X003101Y002228D01*
X003199Y002327D02*
X003690Y002327D01*
X003789Y002425D02*
X003298Y002425D01*
X003396Y002524D02*
X003887Y002524D01*
X003986Y002622D02*
X003495Y002622D01*
X003593Y002721D02*
X004084Y002721D01*
X004183Y002819D02*
X003692Y002819D01*
X003790Y002918D02*
X004281Y002918D01*
X004380Y003016D02*
X003889Y003016D01*
X003987Y003115D02*
X004478Y003115D01*
X004577Y003213D02*
X004086Y003213D01*
X004184Y003312D02*
X004675Y003312D01*
X006534Y002916D02*
X004999Y001380D01*
X005441Y001568D02*
X006609Y002736D01*
X007099Y002736D01*
X006186Y001822D01*
X006094Y001860D01*
X005903Y001860D01*
X005727Y001787D01*
X005592Y001652D01*
X005519Y001476D01*
X005519Y001285D01*
X005592Y001109D01*
X005697Y001004D01*
X005301Y001004D01*
X005406Y001109D01*
X005479Y001285D01*
X005479Y001476D01*
X005441Y001568D01*
X005453Y001539D02*
X005545Y001539D01*
X005519Y001440D02*
X005479Y001440D01*
X005479Y001342D02*
X005519Y001342D01*
X005536Y001243D02*
X005461Y001243D01*
X005420Y001145D02*
X005577Y001145D01*
X005654Y001046D02*
X005343Y001046D01*
X005999Y001380D02*
X007377Y002758D01*
X010711Y002758D01*
X011363Y003410D01*
X011363Y003418D01*
X011504Y003276D02*
X011504Y003276D01*
X010790Y002562D01*
X008180Y002562D01*
X006999Y001380D01*
X006536Y001243D02*
X006461Y001243D01*
X006479Y001285D02*
X006479Y001476D01*
X006441Y001568D01*
X007451Y002578D01*
X007942Y002578D01*
X007186Y001822D01*
X007094Y001860D01*
X006903Y001860D01*
X006727Y001787D01*
X006592Y001652D01*
X006519Y001476D01*
X006519Y001285D01*
X006592Y001109D01*
X006697Y001004D01*
X006301Y001004D01*
X006406Y001109D01*
X006479Y001285D01*
X006479Y001342D02*
X006519Y001342D01*
X006519Y001440D02*
X006479Y001440D01*
X006453Y001539D02*
X006545Y001539D01*
X006510Y001637D02*
X006585Y001637D01*
X006608Y001736D02*
X006675Y001736D01*
X006707Y001834D02*
X006840Y001834D01*
X007157Y001834D02*
X007198Y001834D01*
X007296Y001933D02*
X006805Y001933D01*
X006904Y002031D02*
X007395Y002031D01*
X007493Y002130D02*
X007002Y002130D01*
X007101Y002228D02*
X007592Y002228D01*
X007690Y002327D02*
X007199Y002327D01*
X007298Y002425D02*
X007789Y002425D01*
X007887Y002524D02*
X007396Y002524D01*
X007084Y002721D02*
X006593Y002721D01*
X006495Y002622D02*
X006986Y002622D01*
X006887Y002524D02*
X006396Y002524D01*
X006298Y002425D02*
X006789Y002425D01*
X006690Y002327D02*
X006199Y002327D01*
X006101Y002228D02*
X006592Y002228D01*
X006493Y002130D02*
X006002Y002130D01*
X005904Y002031D02*
X006395Y002031D01*
X006296Y001933D02*
X005805Y001933D01*
X005840Y001834D02*
X005707Y001834D01*
X005675Y001736D02*
X005608Y001736D01*
X005585Y001637D02*
X005510Y001637D01*
X006157Y001834D02*
X006198Y001834D01*
X007441Y001568D02*
X007479Y001476D01*
X007479Y001285D01*
X007406Y001109D01*
X007301Y001004D01*
X007697Y001004D01*
X007592Y001109D01*
X007519Y001285D01*
X007519Y001476D01*
X007592Y001652D01*
X007727Y001787D01*
X007903Y001860D01*
X008094Y001860D01*
X008186Y001822D01*
X008745Y002382D01*
X008254Y002382D01*
X007441Y001568D01*
X007453Y001539D02*
X007545Y001539D01*
X007519Y001440D02*
X007479Y001440D01*
X007479Y001342D02*
X007519Y001342D01*
X007536Y001243D02*
X007461Y001243D01*
X007420Y001145D02*
X007577Y001145D01*
X007654Y001046D02*
X007343Y001046D01*
X006654Y001046D02*
X006343Y001046D01*
X006420Y001145D02*
X006577Y001145D01*
X007510Y001637D02*
X007585Y001637D01*
X007608Y001736D02*
X007675Y001736D01*
X007707Y001834D02*
X007840Y001834D01*
X008157Y001834D02*
X008198Y001834D01*
X008296Y001933D02*
X007805Y001933D01*
X007904Y002031D02*
X008395Y002031D01*
X008493Y002130D02*
X008002Y002130D01*
X008101Y002228D02*
X008592Y002228D01*
X008690Y002327D02*
X008199Y002327D01*
X008904Y002031D02*
X009395Y002031D01*
X009493Y002130D02*
X009002Y002130D01*
X009057Y002185D02*
X009548Y002185D01*
X009186Y001822D01*
X009094Y001860D01*
X008903Y001860D01*
X008727Y001787D01*
X008592Y001652D01*
X008519Y001476D01*
X008519Y001285D01*
X008592Y001109D01*
X008697Y001004D01*
X008301Y001004D01*
X008406Y001109D01*
X008479Y001285D01*
X008479Y001476D01*
X008441Y001568D01*
X009057Y002185D01*
X008983Y002365D02*
X007999Y001380D01*
X008453Y001539D02*
X008545Y001539D01*
X008519Y001440D02*
X008479Y001440D01*
X008479Y001342D02*
X008519Y001342D01*
X008536Y001243D02*
X008461Y001243D01*
X008420Y001145D02*
X008577Y001145D01*
X008654Y001046D02*
X008343Y001046D01*
X008999Y001380D02*
X009786Y002168D01*
X010947Y002168D01*
X011780Y003000D01*
X011780Y003000D01*
X011646Y003135D02*
X011639Y003135D01*
X010869Y002365D01*
X008983Y002365D01*
X008805Y001933D02*
X009296Y001933D01*
X009198Y001834D02*
X009157Y001834D01*
X008840Y001834D02*
X008707Y001834D01*
X008675Y001736D02*
X008608Y001736D01*
X008585Y001637D02*
X008510Y001637D01*
X009441Y001568D02*
X009479Y001476D01*
X009479Y001285D01*
X009406Y001109D01*
X009301Y001004D01*
X009697Y001004D01*
X009592Y001109D01*
X009519Y001285D01*
X009519Y001476D01*
X009592Y001652D01*
X009727Y001787D01*
X009903Y001860D01*
X010094Y001860D01*
X010186Y001822D01*
X010351Y001988D01*
X009861Y001988D01*
X009441Y001568D01*
X009453Y001539D02*
X009545Y001539D01*
X009519Y001440D02*
X009479Y001440D01*
X009479Y001342D02*
X009519Y001342D01*
X009536Y001243D02*
X009461Y001243D01*
X009420Y001145D02*
X009577Y001145D01*
X009654Y001046D02*
X009343Y001046D01*
X009999Y001380D02*
X010589Y001971D01*
X011026Y001971D01*
X011914Y002859D01*
X011921Y002859D01*
X012048Y002717D02*
X011223Y001892D01*
X011223Y001605D01*
X010999Y001380D01*
X011453Y001539D02*
X011545Y001539D01*
X011519Y001476D02*
X011519Y001285D01*
X011592Y001109D01*
X011697Y001004D01*
X011301Y001004D01*
X011406Y001109D01*
X011479Y001285D01*
X011479Y001476D01*
X011406Y001652D01*
X011403Y001655D01*
X011403Y001818D01*
X011791Y002206D01*
X011791Y001814D01*
X011727Y001787D01*
X011592Y001652D01*
X011519Y001476D01*
X011519Y001440D02*
X011479Y001440D01*
X011479Y001342D02*
X011519Y001342D01*
X011536Y001243D02*
X011461Y001243D01*
X011420Y001145D02*
X011577Y001145D01*
X011654Y001046D02*
X011343Y001046D01*
X010697Y001004D02*
X010301Y001004D01*
X010406Y001109D01*
X010479Y001285D01*
X010479Y001476D01*
X010441Y001568D01*
X010664Y001791D01*
X010735Y001791D01*
X010727Y001787D01*
X010592Y001652D01*
X010519Y001476D01*
X010519Y001285D01*
X010592Y001109D01*
X010697Y001004D01*
X010654Y001046D02*
X010343Y001046D01*
X010420Y001145D02*
X010577Y001145D01*
X010536Y001243D02*
X010461Y001243D01*
X010479Y001342D02*
X010519Y001342D01*
X010519Y001440D02*
X010479Y001440D01*
X010453Y001539D02*
X010545Y001539D01*
X010510Y001637D02*
X010585Y001637D01*
X010608Y001736D02*
X010675Y001736D01*
X010198Y001834D02*
X010157Y001834D01*
X009840Y001834D02*
X009707Y001834D01*
X009675Y001736D02*
X009608Y001736D01*
X009585Y001637D02*
X009510Y001637D01*
X009805Y001933D02*
X010296Y001933D01*
X011403Y001736D02*
X011675Y001736D01*
X011585Y001637D02*
X011412Y001637D01*
X011419Y001834D02*
X011791Y001834D01*
X011791Y001933D02*
X011518Y001933D01*
X011616Y002031D02*
X011791Y002031D01*
X011791Y002130D02*
X011715Y002130D01*
X011971Y002365D02*
X011971Y001408D01*
X011999Y001380D01*
X012453Y001539D02*
X012513Y001539D01*
X012487Y001440D02*
X012479Y001440D01*
X012479Y001342D02*
X012487Y001342D01*
X012504Y001243D02*
X012461Y001243D01*
X012420Y001145D02*
X012545Y001145D01*
X012623Y001046D02*
X012343Y001046D01*
X013269Y001004D02*
X013374Y001109D01*
X013447Y001285D01*
X013447Y001476D01*
X013374Y001652D01*
X013371Y001655D01*
X013371Y002206D01*
X013762Y001815D01*
X013695Y001787D01*
X013560Y001652D01*
X013487Y001476D01*
X013487Y001285D01*
X013560Y001109D01*
X013665Y001004D01*
X013269Y001004D01*
X013312Y001046D02*
X013623Y001046D01*
X013545Y001145D02*
X013389Y001145D01*
X013430Y001243D02*
X013504Y001243D01*
X013487Y001342D02*
X013447Y001342D01*
X013447Y001440D02*
X013487Y001440D01*
X013513Y001539D02*
X013421Y001539D01*
X013380Y001637D02*
X013554Y001637D01*
X013643Y001736D02*
X013371Y001736D01*
X013371Y001834D02*
X013743Y001834D01*
X013979Y001853D02*
X013979Y001392D01*
X013967Y001380D01*
X014447Y001342D02*
X014487Y001342D01*
X014487Y001285D02*
X014487Y001405D01*
X014468Y001424D01*
X014447Y001445D01*
X014447Y001285D01*
X014374Y001109D01*
X014269Y001004D01*
X014665Y001004D01*
X014560Y001109D01*
X014487Y001285D01*
X014504Y001243D02*
X014430Y001243D01*
X014389Y001145D02*
X014545Y001145D01*
X014623Y001046D02*
X014312Y001046D01*
X014849Y001499D02*
X014967Y001380D01*
X014849Y001499D02*
X014648Y001499D01*
X013288Y002859D01*
X013265Y002859D01*
X012850Y002918D02*
X012336Y002918D01*
X012357Y002897D02*
X012357Y002897D01*
X012435Y002819D02*
X012751Y002819D01*
X012829Y002897D02*
X012829Y002897D01*
X012948Y003016D02*
X012238Y003016D01*
X012235Y003019D02*
X012235Y003019D01*
X012139Y003115D02*
X013047Y003115D01*
X013145Y003213D02*
X012041Y003213D01*
X011942Y003312D02*
X013244Y003312D01*
X013342Y003410D02*
X011844Y003410D01*
X011805Y003449D02*
X011805Y003449D01*
X011745Y003509D02*
X013441Y003509D01*
X013381Y003449D02*
X013381Y003449D01*
X013539Y003607D02*
X011647Y003607D01*
X011548Y003706D02*
X013638Y003706D01*
X013736Y003804D02*
X011450Y003804D01*
X011535Y003719D02*
X011535Y003719D01*
X011351Y003903D02*
X013835Y003903D01*
X013933Y004001D02*
X011253Y004001D01*
X011154Y004100D02*
X014032Y004100D01*
X014130Y004198D02*
X011056Y004198D01*
X011105Y004149D02*
X011105Y004149D01*
X010957Y004297D02*
X014229Y004297D01*
X014203Y004270D02*
X014203Y004270D01*
X014327Y004395D02*
X010859Y004395D01*
X010693Y004395D02*
X002260Y004395D01*
X002260Y004494D02*
X022863Y004494D01*
X022863Y004592D02*
X014468Y004592D01*
X014353Y004592D02*
X010833Y004592D01*
X010718Y004592D02*
X002260Y004592D01*
X002260Y004691D02*
X010620Y004691D01*
X010932Y004691D02*
X014254Y004691D01*
X014156Y004789D02*
X011030Y004789D01*
X010984Y004743D02*
X010984Y004743D01*
X011129Y004888D02*
X014057Y004888D01*
X014081Y004864D02*
X014081Y004864D01*
X013959Y004986D02*
X011227Y004986D01*
X011326Y005085D02*
X013860Y005085D01*
X014241Y005178D02*
X014241Y005186D01*
X014491Y005436D01*
X020038Y005436D01*
X021967Y007365D01*
X021523Y007547D02*
X021411Y007547D01*
X021447Y007449D02*
X021487Y007449D01*
X021487Y007350D02*
X021447Y007350D01*
X021440Y007252D02*
X021494Y007252D01*
X021501Y007153D02*
X021399Y007153D01*
X021403Y007055D02*
X021336Y007055D01*
X021304Y006956D02*
X021235Y006956D01*
X021206Y006858D02*
X020715Y006858D01*
X020616Y006759D02*
X021107Y006759D01*
X021009Y006661D02*
X020518Y006661D01*
X020419Y006562D02*
X020910Y006562D01*
X020812Y006464D02*
X020321Y006464D01*
X020222Y006365D02*
X020713Y006365D01*
X020615Y006267D02*
X020124Y006267D01*
X020025Y006168D02*
X020516Y006168D01*
X020418Y006070D02*
X019927Y006070D01*
X019828Y005971D02*
X020319Y005971D01*
X020221Y005873D02*
X019730Y005873D01*
X019631Y005774D02*
X020122Y005774D01*
X020024Y005676D02*
X019533Y005676D01*
X019195Y005593D02*
X020967Y007365D01*
X020523Y007547D02*
X020411Y007547D01*
X020447Y007449D02*
X020487Y007449D01*
X020487Y007350D02*
X020447Y007350D01*
X020440Y007252D02*
X020494Y007252D01*
X020501Y007153D02*
X020399Y007153D01*
X020403Y007055D02*
X020336Y007055D01*
X020304Y006956D02*
X020235Y006956D01*
X020206Y006858D02*
X019715Y006858D01*
X019616Y006759D02*
X020107Y006759D01*
X020009Y006661D02*
X019518Y006661D01*
X019419Y006562D02*
X019910Y006562D01*
X019812Y006464D02*
X019321Y006464D01*
X019222Y006365D02*
X019713Y006365D01*
X019615Y006267D02*
X019124Y006267D01*
X019025Y006168D02*
X019516Y006168D01*
X019418Y006070D02*
X018927Y006070D01*
X018828Y005971D02*
X019319Y005971D01*
X019221Y005873D02*
X018730Y005873D01*
X018631Y005774D02*
X019122Y005774D01*
X019195Y005593D02*
X014373Y005593D01*
X014099Y005320D01*
X014099Y005320D01*
X013965Y005454D02*
X013965Y005461D01*
X014254Y005751D01*
X018353Y005751D01*
X019967Y007365D01*
X019523Y007547D02*
X019411Y007547D01*
X019447Y007449D02*
X019487Y007449D01*
X019487Y007350D02*
X019447Y007350D01*
X019440Y007252D02*
X019494Y007252D01*
X019501Y007153D02*
X019399Y007153D01*
X019403Y007055D02*
X019336Y007055D01*
X019304Y006956D02*
X019235Y006956D01*
X019206Y006858D02*
X018715Y006858D01*
X018616Y006759D02*
X019107Y006759D01*
X019009Y006661D02*
X018518Y006661D01*
X018419Y006562D02*
X018910Y006562D01*
X018812Y006464D02*
X018321Y006464D01*
X018222Y006365D02*
X018713Y006365D01*
X018615Y006267D02*
X018124Y006267D01*
X018025Y006168D02*
X018516Y006168D01*
X018418Y006070D02*
X017927Y006070D01*
X017828Y005971D02*
X018319Y005971D01*
X017550Y005947D02*
X018967Y007365D01*
X018523Y007547D02*
X018411Y007547D01*
X018447Y007449D02*
X018487Y007449D01*
X018487Y007350D02*
X018447Y007350D01*
X018440Y007252D02*
X018494Y007252D01*
X018501Y007153D02*
X018399Y007153D01*
X018403Y007055D02*
X018336Y007055D01*
X018304Y006956D02*
X018235Y006956D01*
X018206Y006858D02*
X017715Y006858D01*
X017616Y006759D02*
X018107Y006759D01*
X018009Y006661D02*
X017518Y006661D01*
X017419Y006562D02*
X017910Y006562D01*
X017812Y006464D02*
X017321Y006464D01*
X017222Y006365D02*
X017713Y006365D01*
X017615Y006267D02*
X017124Y006267D01*
X017025Y006168D02*
X017516Y006168D01*
X017550Y005947D02*
X014176Y005947D01*
X013824Y005595D01*
X013823Y005595D01*
X013682Y005737D02*
X014050Y006105D01*
X016707Y006105D01*
X017967Y007365D01*
X017523Y007547D02*
X017411Y007547D01*
X017447Y007449D02*
X017487Y007449D01*
X017487Y007350D02*
X017447Y007350D01*
X017440Y007252D02*
X017494Y007252D01*
X017501Y007153D02*
X017399Y007153D01*
X017403Y007055D02*
X017336Y007055D01*
X017304Y006956D02*
X017235Y006956D01*
X017206Y006858D02*
X016715Y006858D01*
X016616Y006759D02*
X017107Y006759D01*
X017009Y006661D02*
X016518Y006661D01*
X016419Y006562D02*
X016910Y006562D01*
X016812Y006464D02*
X016321Y006464D01*
X016222Y006365D02*
X016713Y006365D01*
X016009Y006661D02*
X015518Y006661D01*
X015616Y006759D02*
X016107Y006759D01*
X016206Y006858D02*
X015715Y006858D01*
X015403Y007055D02*
X015336Y007055D01*
X015304Y006956D02*
X015235Y006956D01*
X015206Y006858D02*
X014715Y006858D01*
X014377Y006774D02*
X014967Y007365D01*
X014523Y007547D02*
X014411Y007547D01*
X014447Y007449D02*
X014487Y007449D01*
X014487Y007350D02*
X014447Y007350D01*
X014440Y007252D02*
X014494Y007252D01*
X014501Y007153D02*
X014399Y007153D01*
X014403Y007055D02*
X014336Y007055D01*
X014304Y006956D02*
X014235Y006956D01*
X014377Y006774D02*
X013861Y006774D01*
X013265Y006178D01*
X013265Y006154D01*
X013123Y006295D02*
X013123Y006312D01*
X013743Y006932D01*
X013743Y007140D01*
X013967Y007365D01*
X013523Y007547D02*
X013411Y007547D01*
X013447Y007449D02*
X013487Y007449D01*
X013487Y007350D02*
X013447Y007350D01*
X013440Y007252D02*
X013494Y007252D01*
X013535Y007153D02*
X013411Y007153D01*
X013411Y007055D02*
X013563Y007055D01*
X013513Y006956D02*
X013411Y006956D01*
X013411Y006858D02*
X013414Y006858D01*
X013231Y006656D02*
X013231Y007101D01*
X012967Y007365D01*
X012523Y007547D02*
X012443Y007547D01*
X012479Y007449D02*
X012487Y007449D01*
X012479Y007350D02*
X012487Y007350D01*
X012494Y007252D02*
X012471Y007252D01*
X012431Y007153D02*
X012535Y007153D01*
X012598Y007055D02*
X012367Y007055D01*
X012267Y006956D02*
X012699Y006956D01*
X013051Y006858D02*
X012151Y006858D01*
X012151Y006759D02*
X013051Y006759D01*
X012958Y006661D02*
X012228Y006661D01*
X012326Y006562D02*
X012860Y006562D01*
X012761Y006464D02*
X012425Y006464D01*
X012511Y006365D02*
X012675Y006365D01*
X012678Y006267D02*
X012508Y006267D01*
X012409Y006168D02*
X012777Y006168D01*
X012875Y006070D02*
X012311Y006070D01*
X012357Y006116D02*
X012357Y006116D01*
X012235Y005994D02*
X012235Y005994D01*
X012212Y005971D02*
X012974Y005971D01*
X012951Y005994D02*
X012951Y005994D01*
X013072Y005873D02*
X012114Y005873D01*
X012015Y005774D02*
X013171Y005774D01*
X013269Y005676D02*
X011917Y005676D01*
X011818Y005577D02*
X013368Y005577D01*
X013381Y005564D02*
X013381Y005564D01*
X013466Y005479D02*
X011720Y005479D01*
X011621Y005380D02*
X013565Y005380D01*
X013651Y005294D02*
X013651Y005294D01*
X013663Y005282D02*
X011523Y005282D01*
X011424Y005183D02*
X013762Y005183D01*
X014382Y005037D02*
X014584Y005239D01*
X020841Y005239D01*
X022967Y007365D01*
X022523Y007547D02*
X022411Y007547D01*
X022447Y007449D02*
X022487Y007449D01*
X022487Y007350D02*
X022447Y007350D01*
X022440Y007252D02*
X022494Y007252D01*
X022501Y007153D02*
X022399Y007153D01*
X022403Y007055D02*
X022336Y007055D01*
X022304Y006956D02*
X022235Y006956D01*
X022206Y006858D02*
X021715Y006858D01*
X021616Y006759D02*
X022107Y006759D01*
X022009Y006661D02*
X021518Y006661D01*
X021419Y006562D02*
X021910Y006562D01*
X021812Y006464D02*
X021321Y006464D01*
X021222Y006365D02*
X021713Y006365D01*
X021615Y006267D02*
X021124Y006267D01*
X021025Y006168D02*
X021516Y006168D01*
X021418Y006070D02*
X020927Y006070D01*
X020828Y005971D02*
X021319Y005971D01*
X021221Y005873D02*
X020730Y005873D01*
X020631Y005774D02*
X021122Y005774D01*
X021024Y005676D02*
X020533Y005676D01*
X020434Y005577D02*
X020925Y005577D01*
X020827Y005479D02*
X020336Y005479D01*
X021139Y005282D02*
X021630Y005282D01*
X021728Y005380D02*
X021237Y005380D01*
X021336Y005479D02*
X021827Y005479D01*
X021925Y005577D02*
X021434Y005577D01*
X021533Y005676D02*
X022024Y005676D01*
X022122Y005774D02*
X021631Y005774D01*
X021730Y005873D02*
X022221Y005873D01*
X022319Y005971D02*
X021828Y005971D01*
X021927Y006070D02*
X022418Y006070D01*
X022516Y006168D02*
X022025Y006168D01*
X022124Y006267D02*
X022615Y006267D01*
X022713Y006365D02*
X022222Y006365D01*
X022321Y006464D02*
X022812Y006464D01*
X022910Y006562D02*
X022419Y006562D01*
X022518Y006661D02*
X023009Y006661D01*
X023107Y006759D02*
X022616Y006759D01*
X022715Y006858D02*
X023206Y006858D01*
X023235Y006956D02*
X023304Y006956D01*
X023336Y007055D02*
X023403Y007055D01*
X023399Y007153D02*
X023501Y007153D01*
X023494Y007252D02*
X023440Y007252D01*
X023447Y007350D02*
X023487Y007350D01*
X023487Y007449D02*
X023447Y007449D01*
X023411Y007547D02*
X023523Y007547D01*
X023569Y007646D02*
X023365Y007646D01*
X023266Y007744D02*
X023668Y007744D01*
X023867Y007843D02*
X023067Y007843D01*
X022867Y007843D02*
X022067Y007843D01*
X021867Y007843D02*
X021067Y007843D01*
X020867Y007843D02*
X020067Y007843D01*
X019867Y007843D02*
X019067Y007843D01*
X018867Y007843D02*
X018067Y007843D01*
X017867Y007843D02*
X017067Y007843D01*
X016867Y007843D02*
X016067Y007843D01*
X015867Y007843D02*
X015067Y007843D01*
X014867Y007843D02*
X014067Y007843D01*
X013867Y007843D02*
X013067Y007843D01*
X012867Y007843D02*
X012099Y007843D01*
X011898Y007843D02*
X011099Y007843D01*
X010898Y007843D02*
X010099Y007843D01*
X009898Y007843D02*
X009099Y007843D01*
X008898Y007843D02*
X008099Y007843D01*
X007898Y007843D02*
X007099Y007843D01*
X006898Y007843D02*
X006099Y007843D01*
X005898Y007843D02*
X005099Y007843D01*
X004898Y007843D02*
X004099Y007843D01*
X003898Y007843D02*
X003099Y007843D01*
X002898Y007843D02*
X002099Y007843D01*
X001898Y007843D02*
X001099Y007843D01*
X000898Y007843D02*
X000807Y007843D01*
X001298Y007744D02*
X001699Y007744D01*
X001601Y007646D02*
X001396Y007646D01*
X001443Y007547D02*
X001555Y007547D01*
X001519Y007449D02*
X001479Y007449D01*
X001479Y007350D02*
X001519Y007350D01*
X001526Y007252D02*
X001471Y007252D01*
X001465Y007153D02*
X001567Y007153D01*
X001563Y007055D02*
X001630Y007055D01*
X001662Y006956D02*
X001731Y006956D01*
X001760Y006858D02*
X002251Y006858D01*
X002350Y006759D02*
X001859Y006759D01*
X001957Y006661D02*
X002448Y006661D01*
X002547Y006562D02*
X002056Y006562D01*
X002154Y006464D02*
X002645Y006464D01*
X002744Y006365D02*
X002253Y006365D01*
X002351Y006267D02*
X002842Y006267D01*
X002941Y006168D02*
X002450Y006168D01*
X002548Y006070D02*
X003039Y006070D01*
X003450Y006168D02*
X003941Y006168D01*
X004039Y006070D02*
X003548Y006070D01*
X003647Y005971D02*
X004138Y005971D01*
X004236Y005873D02*
X003745Y005873D01*
X003844Y005774D02*
X004335Y005774D01*
X004433Y005676D02*
X003942Y005676D01*
X004041Y005577D02*
X004532Y005577D01*
X004630Y005479D02*
X004139Y005479D01*
X004238Y005380D02*
X004729Y005380D01*
X004967Y005396D02*
X002999Y007365D01*
X002519Y007350D02*
X002479Y007350D01*
X002471Y007252D02*
X002526Y007252D01*
X002567Y007153D02*
X002465Y007153D01*
X002563Y007055D02*
X002630Y007055D01*
X002662Y006956D02*
X002731Y006956D01*
X002760Y006858D02*
X003251Y006858D01*
X003350Y006759D02*
X002859Y006759D01*
X002957Y006661D02*
X003448Y006661D01*
X003547Y006562D02*
X003056Y006562D01*
X003154Y006464D02*
X003645Y006464D01*
X003744Y006365D02*
X003253Y006365D01*
X003351Y006267D02*
X003842Y006267D01*
X004253Y006365D02*
X004744Y006365D01*
X004842Y006267D02*
X004351Y006267D01*
X004450Y006168D02*
X004941Y006168D01*
X005039Y006070D02*
X004548Y006070D01*
X004647Y005971D02*
X005138Y005971D01*
X005236Y005873D02*
X004745Y005873D01*
X004844Y005774D02*
X005335Y005774D01*
X005433Y005676D02*
X004942Y005676D01*
X005041Y005577D02*
X005532Y005577D01*
X005770Y005593D02*
X003999Y007365D01*
X003519Y007350D02*
X003479Y007350D01*
X003471Y007252D02*
X003526Y007252D01*
X003567Y007153D02*
X003465Y007153D01*
X003563Y007055D02*
X003630Y007055D01*
X003662Y006956D02*
X003731Y006956D01*
X003760Y006858D02*
X004251Y006858D01*
X004350Y006759D02*
X003859Y006759D01*
X003957Y006661D02*
X004448Y006661D01*
X004547Y006562D02*
X004056Y006562D01*
X004154Y006464D02*
X004645Y006464D01*
X004957Y006661D02*
X005448Y006661D01*
X005350Y006759D02*
X004859Y006759D01*
X004760Y006858D02*
X005251Y006858D01*
X005563Y007055D02*
X005630Y007055D01*
X005662Y006956D02*
X005731Y006956D01*
X005760Y006858D02*
X006251Y006858D01*
X006350Y006759D02*
X005859Y006759D01*
X005957Y006661D02*
X006448Y006661D01*
X006547Y006562D02*
X006056Y006562D01*
X006154Y006464D02*
X006645Y006464D01*
X006744Y006365D02*
X006253Y006365D01*
X006351Y006267D02*
X006842Y006267D01*
X006941Y006168D02*
X006450Y006168D01*
X006548Y006070D02*
X007039Y006070D01*
X007377Y005987D02*
X005999Y007365D01*
X006443Y007547D02*
X006555Y007547D01*
X006519Y007449D02*
X006479Y007449D01*
X006479Y007350D02*
X006519Y007350D01*
X006526Y007252D02*
X006471Y007252D01*
X006465Y007153D02*
X006567Y007153D01*
X006563Y007055D02*
X006630Y007055D01*
X006662Y006956D02*
X006731Y006956D01*
X006760Y006858D02*
X007251Y006858D01*
X007350Y006759D02*
X006859Y006759D01*
X006957Y006661D02*
X007448Y006661D01*
X007547Y006562D02*
X007056Y006562D01*
X007154Y006464D02*
X007645Y006464D01*
X007744Y006365D02*
X007253Y006365D01*
X007351Y006267D02*
X007842Y006267D01*
X007941Y006168D02*
X007450Y006168D01*
X007377Y005987D02*
X010987Y005987D01*
X011363Y005611D01*
X011363Y005595D01*
X011221Y005454D02*
X011205Y005454D01*
X010869Y005790D01*
X006573Y005790D01*
X004999Y007365D01*
X004526Y007252D02*
X004471Y007252D01*
X004479Y007350D02*
X004519Y007350D01*
X004519Y007449D02*
X004479Y007449D01*
X004443Y007547D02*
X004555Y007547D01*
X004601Y007646D02*
X004396Y007646D01*
X004298Y007744D02*
X004699Y007744D01*
X005298Y007744D02*
X005699Y007744D01*
X005601Y007646D02*
X005396Y007646D01*
X005443Y007547D02*
X005555Y007547D01*
X005519Y007449D02*
X005479Y007449D01*
X005479Y007350D02*
X005519Y007350D01*
X005526Y007252D02*
X005471Y007252D01*
X005465Y007153D02*
X005567Y007153D01*
X004731Y006956D02*
X004662Y006956D01*
X004630Y007055D02*
X004563Y007055D01*
X004567Y007153D02*
X004465Y007153D01*
X003519Y007449D02*
X003479Y007449D01*
X003443Y007547D02*
X003555Y007547D01*
X003601Y007646D02*
X003396Y007646D01*
X003298Y007744D02*
X003699Y007744D01*
X002699Y007744D02*
X002298Y007744D01*
X002396Y007646D02*
X002601Y007646D01*
X002555Y007547D02*
X002443Y007547D01*
X002479Y007449D02*
X002519Y007449D01*
X001999Y007365D02*
X004164Y005199D01*
X010632Y005199D01*
X010795Y005037D01*
X010804Y005037D01*
X010929Y005178D02*
X010711Y005396D01*
X004967Y005396D01*
X005770Y005593D02*
X010790Y005593D01*
X011063Y005320D01*
X011087Y005320D01*
X010946Y005178D02*
X010929Y005178D01*
X010670Y004902D02*
X003461Y004902D01*
X000999Y007365D01*
X000807Y006858D02*
X001251Y006858D01*
X001350Y006759D02*
X000807Y006759D01*
X000807Y006661D02*
X001448Y006661D01*
X001547Y006562D02*
X000807Y006562D01*
X000807Y006464D02*
X001645Y006464D01*
X001744Y006365D02*
X000807Y006365D01*
X000807Y006267D02*
X001842Y006267D01*
X001941Y006168D02*
X000807Y006168D01*
X000807Y006070D02*
X002039Y006070D01*
X002138Y005971D02*
X000807Y005971D01*
X000807Y005873D02*
X002236Y005873D01*
X002335Y005774D02*
X000807Y005774D01*
X000807Y005676D02*
X002433Y005676D01*
X002532Y005577D02*
X000807Y005577D01*
X000807Y005479D02*
X002630Y005479D01*
X002729Y005380D02*
X000807Y005380D01*
X000807Y005282D02*
X002827Y005282D01*
X002926Y005183D02*
X000807Y005183D01*
X000807Y005085D02*
X003024Y005085D01*
X003123Y004986D02*
X000807Y004986D01*
X000807Y004888D02*
X003221Y004888D01*
X003320Y004789D02*
X002213Y004789D01*
X002184Y004819D02*
X001680Y004819D01*
X001604Y004743D01*
X001604Y004239D01*
X001680Y004163D01*
X002184Y004163D01*
X002260Y004239D01*
X002260Y004743D01*
X002184Y004819D01*
X001650Y004789D02*
X000807Y004789D01*
X000807Y004691D02*
X001604Y004691D01*
X001604Y004592D02*
X000807Y004592D01*
X000807Y004494D02*
X001604Y004494D01*
X001604Y004395D02*
X000807Y004395D01*
X000807Y004297D02*
X001604Y004297D01*
X001644Y004198D02*
X000807Y004198D01*
X000807Y004100D02*
X010381Y004100D01*
X010479Y004198D02*
X002219Y004198D01*
X002260Y004297D02*
X010594Y004297D01*
X010282Y004001D02*
X000807Y004001D01*
X003533Y005085D02*
X004024Y005085D01*
X003926Y005183D02*
X003435Y005183D01*
X003336Y005282D02*
X003827Y005282D01*
X003729Y005380D02*
X003238Y005380D01*
X003139Y005479D02*
X003630Y005479D01*
X003532Y005577D02*
X003041Y005577D01*
X002942Y005676D02*
X003433Y005676D01*
X003335Y005774D02*
X002844Y005774D01*
X002745Y005873D02*
X003236Y005873D01*
X003138Y005971D02*
X002647Y005971D01*
X005056Y006562D02*
X005547Y006562D01*
X005645Y006464D02*
X005154Y006464D01*
X005253Y006365D02*
X005744Y006365D01*
X005842Y006267D02*
X005351Y006267D01*
X005450Y006168D02*
X005941Y006168D01*
X006039Y006070D02*
X005548Y006070D01*
X005647Y005971D02*
X006138Y005971D01*
X006236Y005873D02*
X005745Y005873D01*
X005844Y005774D02*
X006335Y005774D01*
X006647Y005971D02*
X007138Y005971D01*
X008180Y006184D02*
X006999Y007365D01*
X007443Y007547D02*
X007555Y007547D01*
X007519Y007449D02*
X007479Y007449D01*
X007479Y007350D02*
X007519Y007350D01*
X007526Y007252D02*
X007471Y007252D01*
X007465Y007153D02*
X007567Y007153D01*
X007563Y007055D02*
X007630Y007055D01*
X007662Y006956D02*
X007731Y006956D01*
X007760Y006858D02*
X008251Y006858D01*
X008350Y006759D02*
X007859Y006759D01*
X007957Y006661D02*
X008448Y006661D01*
X008547Y006562D02*
X008056Y006562D01*
X008154Y006464D02*
X008645Y006464D01*
X008744Y006365D02*
X008253Y006365D01*
X008180Y006184D02*
X011066Y006184D01*
X011504Y005745D01*
X011504Y005737D01*
X011646Y005878D02*
X011646Y005879D01*
X011184Y006341D01*
X009022Y006341D01*
X007999Y007365D01*
X008443Y007547D02*
X008555Y007547D01*
X008519Y007449D02*
X008479Y007449D01*
X008479Y007350D02*
X008519Y007350D01*
X008526Y007252D02*
X008471Y007252D01*
X008465Y007153D02*
X008567Y007153D01*
X008563Y007055D02*
X008630Y007055D01*
X008662Y006956D02*
X008731Y006956D01*
X008760Y006858D02*
X009251Y006858D01*
X009350Y006759D02*
X008859Y006759D01*
X008957Y006661D02*
X009448Y006661D01*
X009547Y006562D02*
X009056Y006562D01*
X008999Y007365D02*
X009865Y006499D01*
X011262Y006499D01*
X011748Y006013D01*
X011780Y006013D01*
X011883Y006154D02*
X011380Y006656D01*
X010707Y006656D01*
X009999Y007365D01*
X010443Y007547D02*
X010555Y007547D01*
X010519Y007449D02*
X010479Y007449D01*
X010479Y007350D02*
X010519Y007350D01*
X010526Y007252D02*
X010471Y007252D01*
X010465Y007153D02*
X010567Y007153D01*
X010563Y007055D02*
X010630Y007055D01*
X010662Y006956D02*
X010731Y006956D01*
X010760Y006858D02*
X011251Y006858D01*
X011563Y007055D02*
X011630Y007055D01*
X011662Y006956D02*
X011731Y006956D01*
X011760Y006858D02*
X011791Y006858D01*
X011971Y006656D02*
X011971Y007337D01*
X011999Y007365D01*
X011555Y007547D02*
X011443Y007547D01*
X011479Y007449D02*
X011519Y007449D01*
X011519Y007350D02*
X011479Y007350D01*
X011471Y007252D02*
X011526Y007252D01*
X011567Y007153D02*
X011465Y007153D01*
X010999Y007365D02*
X012063Y006301D01*
X012063Y006295D01*
X011921Y006154D02*
X011883Y006154D01*
X012197Y006430D02*
X012197Y006430D01*
X011971Y006656D01*
X012989Y006430D02*
X013005Y006430D01*
X013231Y006656D01*
X013414Y006013D02*
X013900Y006499D01*
X015101Y006499D01*
X015967Y007365D01*
X015523Y007547D02*
X015411Y007547D01*
X015447Y007449D02*
X015487Y007449D01*
X015487Y007350D02*
X015447Y007350D01*
X015440Y007252D02*
X015494Y007252D01*
X015501Y007153D02*
X015399Y007153D01*
X016235Y006956D02*
X016304Y006956D01*
X016336Y007055D02*
X016403Y007055D01*
X016399Y007153D02*
X016501Y007153D01*
X016494Y007252D02*
X016440Y007252D01*
X016447Y007350D02*
X016487Y007350D01*
X016487Y007449D02*
X016447Y007449D01*
X016411Y007547D02*
X016523Y007547D01*
X016569Y007646D02*
X016365Y007646D01*
X016266Y007744D02*
X016668Y007744D01*
X017266Y007744D02*
X017668Y007744D01*
X017569Y007646D02*
X017365Y007646D01*
X018266Y007744D02*
X018668Y007744D01*
X018569Y007646D02*
X018365Y007646D01*
X019266Y007744D02*
X019668Y007744D01*
X019569Y007646D02*
X019365Y007646D01*
X020266Y007744D02*
X020668Y007744D01*
X020569Y007646D02*
X020365Y007646D01*
X021266Y007744D02*
X021668Y007744D01*
X021569Y007646D02*
X021365Y007646D01*
X022266Y007744D02*
X022668Y007744D01*
X022569Y007646D02*
X022365Y007646D01*
X023967Y007365D02*
X021684Y005081D01*
X014695Y005081D01*
X014516Y004902D01*
X014665Y004789D02*
X022910Y004789D01*
X022940Y004819D02*
X022863Y004743D01*
X022863Y004239D01*
X022940Y004163D01*
X023443Y004163D01*
X023520Y004239D01*
X023520Y004743D01*
X023443Y004819D01*
X022940Y004819D01*
X022863Y004691D02*
X014566Y004691D01*
X014763Y004888D02*
X024218Y004888D01*
X024218Y004986D02*
X021843Y004986D01*
X021942Y005085D02*
X024218Y005085D01*
X024218Y005183D02*
X022040Y005183D01*
X022139Y005282D02*
X024218Y005282D01*
X024218Y005380D02*
X022237Y005380D01*
X022336Y005479D02*
X024218Y005479D01*
X024218Y005577D02*
X022434Y005577D01*
X022533Y005676D02*
X024218Y005676D01*
X024218Y005774D02*
X022631Y005774D01*
X022730Y005873D02*
X024218Y005873D01*
X024218Y005971D02*
X022828Y005971D01*
X022927Y006070D02*
X024218Y006070D01*
X024218Y006168D02*
X023025Y006168D01*
X023124Y006267D02*
X024218Y006267D01*
X024218Y006365D02*
X023222Y006365D01*
X023321Y006464D02*
X024218Y006464D01*
X024218Y006562D02*
X023419Y006562D01*
X023518Y006661D02*
X024218Y006661D01*
X024218Y006759D02*
X023616Y006759D01*
X023715Y006858D02*
X024218Y006858D01*
X024218Y007843D02*
X024067Y007843D01*
X016967Y007365D02*
X015865Y006262D01*
X013940Y006262D01*
X013555Y005878D01*
X013541Y005878D01*
X013414Y006013D02*
X013406Y006013D01*
X015321Y006464D02*
X015812Y006464D01*
X015910Y006562D02*
X015419Y006562D01*
X015107Y006759D02*
X014616Y006759D01*
X014569Y007646D02*
X014365Y007646D01*
X014266Y007744D02*
X014668Y007744D01*
X015266Y007744D02*
X015668Y007744D01*
X015569Y007646D02*
X015365Y007646D01*
X013668Y007744D02*
X013266Y007744D01*
X013365Y007646D02*
X013569Y007646D01*
X012668Y007744D02*
X012298Y007744D01*
X012396Y007646D02*
X012569Y007646D01*
X011699Y007744D02*
X011298Y007744D01*
X011396Y007646D02*
X011601Y007646D01*
X010699Y007744D02*
X010298Y007744D01*
X010396Y007646D02*
X010601Y007646D01*
X009699Y007744D02*
X009298Y007744D01*
X009396Y007646D02*
X009601Y007646D01*
X009555Y007547D02*
X009443Y007547D01*
X009479Y007449D02*
X009519Y007449D01*
X009519Y007350D02*
X009479Y007350D01*
X009471Y007252D02*
X009526Y007252D01*
X009567Y007153D02*
X009465Y007153D01*
X009563Y007055D02*
X009630Y007055D01*
X009662Y006956D02*
X009731Y006956D01*
X009760Y006858D02*
X010251Y006858D01*
X010350Y006759D02*
X009859Y006759D01*
X008601Y007646D02*
X008396Y007646D01*
X008298Y007744D02*
X008699Y007744D01*
X007699Y007744D02*
X007298Y007744D01*
X007396Y007646D02*
X007601Y007646D01*
X006699Y007744D02*
X006298Y007744D01*
X006396Y007646D02*
X006601Y007646D01*
X014493Y004395D02*
X022863Y004395D01*
X022863Y004297D02*
X014592Y004297D01*
X014690Y004198D02*
X022904Y004198D01*
X023479Y004198D02*
X024218Y004198D01*
X024218Y004100D02*
X014789Y004100D01*
X014880Y004001D02*
X024218Y004001D01*
X024218Y003903D02*
X014979Y003903D01*
X015077Y003804D02*
X024218Y003804D01*
X024218Y003706D02*
X021896Y003706D01*
X021995Y003607D02*
X024218Y003607D01*
X024218Y003509D02*
X022093Y003509D01*
X022192Y003410D02*
X024218Y003410D01*
X024218Y003312D02*
X022290Y003312D01*
X022389Y003213D02*
X024218Y003213D01*
X024218Y003115D02*
X022487Y003115D01*
X022586Y003016D02*
X024218Y003016D01*
X024218Y002918D02*
X022684Y002918D01*
X022783Y002819D02*
X024218Y002819D01*
X024218Y002721D02*
X022881Y002721D01*
X022980Y002622D02*
X024218Y002622D01*
X024218Y002524D02*
X023078Y002524D01*
X023177Y002425D02*
X024218Y002425D01*
X024218Y002327D02*
X023275Y002327D01*
X023374Y002228D02*
X024218Y002228D01*
X024218Y002130D02*
X023472Y002130D01*
X023571Y002031D02*
X024218Y002031D01*
X024218Y001933D02*
X023669Y001933D01*
X023768Y001834D02*
X023808Y001834D01*
X024126Y001834D02*
X024218Y001834D01*
X023525Y001568D02*
X023487Y001476D01*
X023487Y001285D01*
X023560Y001109D01*
X023665Y001004D01*
X023269Y001004D01*
X023374Y001109D01*
X023447Y001285D01*
X023447Y001476D01*
X023374Y001652D01*
X023239Y001787D01*
X023063Y001860D01*
X022872Y001860D01*
X022780Y001822D01*
X021197Y003405D01*
X021688Y003405D01*
X023525Y001568D01*
X023513Y001539D02*
X023421Y001539D01*
X023447Y001440D02*
X023487Y001440D01*
X023487Y001342D02*
X023447Y001342D01*
X023430Y001243D02*
X023504Y001243D01*
X023545Y001145D02*
X023389Y001145D01*
X023312Y001046D02*
X023623Y001046D01*
X023967Y001380D02*
X021762Y003585D01*
X015042Y003585D01*
X014517Y004110D01*
X014516Y004110D01*
X014382Y003976D02*
X014382Y003969D01*
X014963Y003388D01*
X020959Y003388D01*
X022967Y001380D01*
X022525Y001568D02*
X022487Y001476D01*
X022487Y001285D01*
X022560Y001109D01*
X022665Y001004D01*
X022269Y001004D01*
X022374Y001109D01*
X022447Y001285D01*
X022447Y001476D01*
X022374Y001652D01*
X022239Y001787D01*
X022063Y001860D01*
X021872Y001860D01*
X021780Y001822D01*
X020394Y003208D01*
X020885Y003208D01*
X022525Y001568D01*
X022513Y001539D02*
X022421Y001539D01*
X022447Y001440D02*
X022487Y001440D01*
X022487Y001342D02*
X022447Y001342D01*
X022430Y001243D02*
X022504Y001243D01*
X022545Y001145D02*
X022389Y001145D01*
X022312Y001046D02*
X022623Y001046D01*
X021967Y001380D02*
X020156Y003191D01*
X014884Y003191D01*
X014241Y003835D01*
X014241Y003835D01*
X014107Y003693D02*
X014845Y002955D01*
X019392Y002955D01*
X020967Y001380D01*
X020525Y001568D02*
X020487Y001476D01*
X020487Y001285D01*
X020560Y001109D01*
X020665Y001004D01*
X020269Y001004D01*
X020374Y001109D01*
X020447Y001285D01*
X020447Y001476D01*
X020374Y001652D01*
X020239Y001787D01*
X020063Y001860D01*
X019872Y001860D01*
X019780Y001822D01*
X018827Y002775D01*
X019318Y002775D01*
X020525Y001568D01*
X020513Y001539D02*
X020421Y001539D01*
X020447Y001440D02*
X020487Y001440D01*
X020487Y001342D02*
X020447Y001342D01*
X020430Y001243D02*
X020504Y001243D01*
X020545Y001145D02*
X020389Y001145D01*
X020312Y001046D02*
X020623Y001046D01*
X021269Y001004D02*
X021374Y001109D01*
X021447Y001285D01*
X021447Y001476D01*
X021374Y001652D01*
X021239Y001787D01*
X021063Y001860D01*
X020872Y001860D01*
X020780Y001822D01*
X019591Y003011D01*
X020082Y003011D01*
X021525Y001568D01*
X021487Y001476D01*
X021487Y001285D01*
X021560Y001109D01*
X021665Y001004D01*
X021269Y001004D01*
X021312Y001046D02*
X021623Y001046D01*
X021545Y001145D02*
X021389Y001145D01*
X021430Y001243D02*
X021504Y001243D01*
X021487Y001342D02*
X021447Y001342D01*
X021447Y001440D02*
X021487Y001440D01*
X021513Y001539D02*
X021421Y001539D01*
X021456Y001637D02*
X021380Y001637D01*
X021357Y001736D02*
X021291Y001736D01*
X021259Y001834D02*
X021126Y001834D01*
X021160Y001933D02*
X020669Y001933D01*
X020571Y002031D02*
X021062Y002031D01*
X020963Y002130D02*
X020472Y002130D01*
X020374Y002228D02*
X020865Y002228D01*
X020766Y002327D02*
X020275Y002327D01*
X020177Y002425D02*
X020668Y002425D01*
X020569Y002524D02*
X020078Y002524D01*
X019980Y002622D02*
X020471Y002622D01*
X020372Y002721D02*
X019881Y002721D01*
X019783Y002819D02*
X020274Y002819D01*
X020175Y002918D02*
X019684Y002918D01*
X019372Y002721D02*
X018881Y002721D01*
X018980Y002622D02*
X019471Y002622D01*
X019569Y002524D02*
X019078Y002524D01*
X019177Y002425D02*
X019668Y002425D01*
X019766Y002327D02*
X019275Y002327D01*
X019374Y002228D02*
X019865Y002228D01*
X019963Y002130D02*
X019472Y002130D01*
X019571Y002031D02*
X020062Y002031D01*
X020160Y001933D02*
X019669Y001933D01*
X019768Y001834D02*
X019808Y001834D01*
X019357Y001736D02*
X019291Y001736D01*
X019239Y001787D02*
X019063Y001860D01*
X018872Y001860D01*
X018780Y001822D01*
X018024Y002578D01*
X018515Y002578D01*
X019525Y001568D01*
X019487Y001476D01*
X019487Y001285D01*
X019560Y001109D01*
X019665Y001004D01*
X019269Y001004D01*
X019374Y001109D01*
X019447Y001285D01*
X019447Y001476D01*
X019374Y001652D01*
X019239Y001787D01*
X019259Y001834D02*
X019126Y001834D01*
X019160Y001933D02*
X018669Y001933D01*
X018571Y002031D02*
X019062Y002031D01*
X018963Y002130D02*
X018472Y002130D01*
X018374Y002228D02*
X018865Y002228D01*
X018766Y002327D02*
X018275Y002327D01*
X018177Y002425D02*
X018668Y002425D01*
X018569Y002524D02*
X018078Y002524D01*
X017747Y002601D02*
X018967Y001380D01*
X018525Y001568D02*
X018487Y001476D01*
X018487Y001285D01*
X018560Y001109D01*
X018665Y001004D01*
X018269Y001004D01*
X018374Y001109D01*
X018447Y001285D01*
X018447Y001476D01*
X018374Y001652D01*
X018239Y001787D01*
X018063Y001860D01*
X017872Y001860D01*
X017780Y001822D01*
X017181Y002421D01*
X017672Y002421D01*
X018525Y001568D01*
X018513Y001539D02*
X018421Y001539D01*
X018447Y001440D02*
X018487Y001440D01*
X018487Y001342D02*
X018447Y001342D01*
X018430Y001243D02*
X018504Y001243D01*
X018545Y001145D02*
X018389Y001145D01*
X018312Y001046D02*
X018623Y001046D01*
X019312Y001046D02*
X019623Y001046D01*
X019545Y001145D02*
X019389Y001145D01*
X019430Y001243D02*
X019504Y001243D01*
X019487Y001342D02*
X019447Y001342D01*
X019447Y001440D02*
X019487Y001440D01*
X019513Y001539D02*
X019421Y001539D01*
X019456Y001637D02*
X019380Y001637D01*
X018808Y001834D02*
X018768Y001834D01*
X018357Y001736D02*
X018291Y001736D01*
X018259Y001834D02*
X018126Y001834D01*
X018160Y001933D02*
X017669Y001933D01*
X017571Y002031D02*
X018062Y002031D01*
X017963Y002130D02*
X017472Y002130D01*
X017374Y002228D02*
X017865Y002228D01*
X017766Y002327D02*
X017275Y002327D01*
X016943Y002404D02*
X017967Y001380D01*
X017525Y001568D02*
X017487Y001476D01*
X017487Y001285D01*
X017560Y001109D01*
X017665Y001004D01*
X017269Y001004D01*
X017374Y001109D01*
X017447Y001285D01*
X017447Y001476D01*
X017374Y001652D01*
X017239Y001787D01*
X017063Y001860D01*
X016872Y001860D01*
X016780Y001822D01*
X016378Y002224D01*
X016869Y002224D01*
X017525Y001568D01*
X017513Y001539D02*
X017421Y001539D01*
X017447Y001440D02*
X017487Y001440D01*
X017487Y001342D02*
X017447Y001342D01*
X017430Y001243D02*
X017504Y001243D01*
X017545Y001145D02*
X017389Y001145D01*
X017312Y001046D02*
X017623Y001046D01*
X016967Y001380D02*
X016140Y002207D01*
X014491Y002207D01*
X013563Y003135D01*
X013541Y003135D01*
X013422Y003000D02*
X014412Y002010D01*
X015337Y002010D01*
X015967Y001380D01*
X015525Y001568D02*
X015487Y001476D01*
X015487Y001285D01*
X015560Y001109D01*
X015665Y001004D01*
X015269Y001004D01*
X015374Y001109D01*
X015447Y001285D01*
X015447Y001476D01*
X015374Y001652D01*
X015239Y001787D01*
X015135Y001830D01*
X015263Y001830D01*
X015525Y001568D01*
X015513Y001539D02*
X015421Y001539D01*
X015447Y001440D02*
X015487Y001440D01*
X015487Y001342D02*
X015447Y001342D01*
X015430Y001243D02*
X015504Y001243D01*
X015545Y001145D02*
X015389Y001145D01*
X015312Y001046D02*
X015623Y001046D01*
X016269Y001004D02*
X016374Y001109D01*
X016447Y001285D01*
X016447Y001476D01*
X016374Y001652D01*
X016239Y001787D01*
X016063Y001860D01*
X015872Y001860D01*
X015780Y001822D01*
X015575Y002027D01*
X016066Y002027D01*
X016525Y001568D01*
X016487Y001476D01*
X016487Y001285D01*
X016560Y001109D01*
X016665Y001004D01*
X016269Y001004D01*
X016312Y001046D02*
X016623Y001046D01*
X016545Y001145D02*
X016389Y001145D01*
X016430Y001243D02*
X016504Y001243D01*
X016487Y001342D02*
X016447Y001342D01*
X016447Y001440D02*
X016487Y001440D01*
X016513Y001539D02*
X016421Y001539D01*
X016456Y001637D02*
X016380Y001637D01*
X016357Y001736D02*
X016291Y001736D01*
X016259Y001834D02*
X016126Y001834D01*
X016160Y001933D02*
X015669Y001933D01*
X015768Y001834D02*
X015808Y001834D01*
X015357Y001736D02*
X015291Y001736D01*
X015380Y001637D02*
X015456Y001637D01*
X014799Y001830D02*
X014695Y001787D01*
X014655Y001747D01*
X014571Y001830D01*
X014799Y001830D01*
X013979Y001853D02*
X013123Y002708D01*
X013123Y002717D01*
X012989Y002583D02*
X012989Y002567D01*
X013191Y002365D01*
X013191Y001605D01*
X012967Y001380D01*
X012554Y001637D02*
X012412Y001637D01*
X012322Y001736D02*
X012643Y001736D01*
X012808Y001834D02*
X012157Y001834D01*
X012151Y001933D02*
X013011Y001933D01*
X013011Y002031D02*
X012151Y002031D01*
X012151Y002130D02*
X013011Y002130D01*
X013011Y002228D02*
X012151Y002228D01*
X012202Y002327D02*
X012975Y002327D01*
X012876Y002425D02*
X012301Y002425D01*
X012399Y002524D02*
X012787Y002524D01*
X012688Y002622D02*
X012498Y002622D01*
X012511Y002721D02*
X012675Y002721D01*
X012197Y002583D02*
X012189Y002583D01*
X011971Y002365D01*
X012048Y002717D02*
X012063Y002717D01*
X013406Y003000D02*
X013422Y003000D01*
X013682Y003276D02*
X013697Y003276D01*
X014569Y002404D01*
X016943Y002404D01*
X016963Y002130D02*
X016472Y002130D01*
X016571Y002031D02*
X017062Y002031D01*
X017160Y001933D02*
X016669Y001933D01*
X016768Y001834D02*
X016808Y001834D01*
X017126Y001834D02*
X017259Y001834D01*
X017291Y001736D02*
X017357Y001736D01*
X017380Y001637D02*
X017456Y001637D01*
X017768Y001834D02*
X017808Y001834D01*
X018380Y001637D02*
X018456Y001637D01*
X018589Y002758D02*
X019967Y001380D01*
X020380Y001637D02*
X020456Y001637D01*
X020357Y001736D02*
X020291Y001736D01*
X020259Y001834D02*
X020126Y001834D01*
X020768Y001834D02*
X020808Y001834D01*
X021571Y002031D02*
X022062Y002031D01*
X022160Y001933D02*
X021669Y001933D01*
X021768Y001834D02*
X021808Y001834D01*
X022126Y001834D02*
X022259Y001834D01*
X022291Y001736D02*
X022357Y001736D01*
X022380Y001637D02*
X022456Y001637D01*
X022768Y001834D02*
X022808Y001834D01*
X022669Y001933D02*
X023160Y001933D01*
X023062Y002031D02*
X022571Y002031D01*
X022472Y002130D02*
X022963Y002130D01*
X022865Y002228D02*
X022374Y002228D01*
X022275Y002327D02*
X022766Y002327D01*
X022668Y002425D02*
X022177Y002425D01*
X022078Y002524D02*
X022569Y002524D01*
X022471Y002622D02*
X021980Y002622D01*
X021881Y002721D02*
X022372Y002721D01*
X022274Y002819D02*
X021783Y002819D01*
X021684Y002918D02*
X022175Y002918D01*
X022077Y003016D02*
X021586Y003016D01*
X021487Y003115D02*
X021978Y003115D01*
X021880Y003213D02*
X021389Y003213D01*
X021290Y003312D02*
X021781Y003312D01*
X021077Y003016D02*
X020586Y003016D01*
X020684Y002918D02*
X021175Y002918D01*
X021274Y002819D02*
X020783Y002819D01*
X020881Y002721D02*
X021372Y002721D01*
X021471Y002622D02*
X020980Y002622D01*
X021078Y002524D02*
X021569Y002524D01*
X021668Y002425D02*
X021177Y002425D01*
X021275Y002327D02*
X021766Y002327D01*
X021865Y002228D02*
X021374Y002228D01*
X021472Y002130D02*
X021963Y002130D01*
X023126Y001834D02*
X023259Y001834D01*
X023291Y001736D02*
X023357Y001736D01*
X023380Y001637D02*
X023456Y001637D01*
X024923Y000172D02*
X024963Y000213D01*
X024963Y000160D01*
X024893Y000160D01*
X024923Y000172D01*
X017747Y002601D02*
X014648Y002601D01*
X013832Y003418D01*
X013823Y003418D01*
X013965Y003559D02*
X013966Y003559D01*
X014766Y002758D01*
X018589Y002758D01*
X020487Y003115D02*
X020978Y003115D01*
X023520Y004297D02*
X024218Y004297D01*
X024218Y004395D02*
X023520Y004395D01*
X023520Y004494D02*
X024218Y004494D01*
X024218Y004592D02*
X023520Y004592D01*
X023520Y004691D02*
X024218Y004691D01*
X024218Y004789D02*
X023473Y004789D01*
X014107Y003693D02*
X014099Y003693D01*
X011221Y003559D02*
X011221Y003544D01*
X010593Y002916D01*
X006534Y002916D01*
X004198Y001834D02*
X004157Y001834D01*
X013371Y001933D02*
X013645Y001933D01*
X013546Y002031D02*
X013371Y002031D01*
X013371Y002130D02*
X013448Y002130D01*
X014447Y001440D02*
X014452Y001440D01*
D13*
X023191Y004491D03*
X001932Y004491D03*
M02*
