G75*
%MOIN*%
%OFA0B0*%
%FSLAX24Y24*%
%IPPOS*%
%LPD*%
%AMOC8*
5,1,8,0,0,1.08239X$1,22.5*
%
%ADD10C,0.0780*%
%ADD11R,0.0476X0.0476*%
D10*
X000999Y001380D03*
X001999Y001380D03*
X002999Y001380D03*
X003999Y001380D03*
X004999Y001380D03*
X005999Y001380D03*
X006999Y001380D03*
X007999Y001380D03*
X008999Y001380D03*
X009999Y001380D03*
X010999Y001380D03*
X011999Y001380D03*
X012967Y001380D03*
X013967Y001380D03*
X014967Y001380D03*
X015967Y001380D03*
X016967Y001380D03*
X017967Y001380D03*
X018967Y001380D03*
X019967Y001380D03*
X020967Y001380D03*
X021967Y001380D03*
X022967Y001380D03*
X023967Y001380D03*
X023967Y007365D03*
X022967Y007365D03*
X021967Y007365D03*
X020967Y007365D03*
X019967Y007365D03*
X018967Y007365D03*
X017967Y007365D03*
X016967Y007365D03*
X015967Y007365D03*
X014967Y007365D03*
X013967Y007365D03*
X012967Y007365D03*
X011999Y007365D03*
X010999Y007365D03*
X009999Y007365D03*
X008999Y007365D03*
X007999Y007365D03*
X006999Y007365D03*
X005999Y007365D03*
X004999Y007365D03*
X003999Y007365D03*
X002999Y007365D03*
X001999Y007365D03*
X000999Y007365D03*
D11*
X001932Y004491D03*
X023191Y004491D03*
M02*
