%
M48
M72
T01C0.0236
T02C0.0400
%
T01
X1932Y4491
X23191Y4491
T02
X999Y1380
X1999Y1380
X2999Y1380
X3999Y1380
X4999Y1380
X5999Y1380
X6999Y1380
X7999Y1380
X8999Y1380
X9999Y1380
X10999Y1380
X11999Y1380
X12967Y1380
X13967Y1380
X14967Y1380
X15967Y1380
X16967Y1380
X17967Y1380
X18967Y1380
X19967Y1380
X20967Y1380
X21967Y1380
X22967Y1380
X23967Y1380
X23967Y7365
X22967Y7365
X21967Y7365
X20967Y7365
X19967Y7365
X18967Y7365
X17967Y7365
X16967Y7365
X15967Y7365
X14967Y7365
X13967Y7365
X12967Y7365
X11999Y7365
X10999Y7365
X9999Y7365
X8999Y7365
X7999Y7365
X6999Y7365
X5999Y7365
X4999Y7365
X3999Y7365
X2999Y7365
X1999Y7365
X999Y7365
M30
