G75*
%MOIN*%
%OFA0B0*%
%FSLAX24Y24*%
%IPPOS*%
%LPD*%
%AMOC8*
5,1,8,0,0,1.08239X$1,22.5*
%
%ADD10R,0.0190X0.0490*%
%ADD11C,0.0780*%
%ADD12R,0.0476X0.0476*%
D10*
G36*
X010840Y003595D02*
X010706Y003729D01*
X011052Y004075D01*
X011186Y003941D01*
X010840Y003595D01*
G37*
G36*
X011115Y003319D02*
X010981Y003453D01*
X011327Y003799D01*
X011461Y003665D01*
X011115Y003319D01*
G37*
G36*
X011257Y003178D02*
X011123Y003312D01*
X011469Y003658D01*
X011603Y003524D01*
X011257Y003178D01*
G37*
G36*
X011398Y003036D02*
X011264Y003170D01*
X011610Y003516D01*
X011744Y003382D01*
X011398Y003036D01*
G37*
G36*
X011540Y002895D02*
X011406Y003029D01*
X011752Y003375D01*
X011886Y003241D01*
X011540Y002895D01*
G37*
G36*
X011674Y002760D02*
X011540Y002894D01*
X011886Y003240D01*
X012020Y003106D01*
X011674Y002760D01*
G37*
G36*
X011815Y002619D02*
X011681Y002753D01*
X012027Y003099D01*
X012161Y002965D01*
X011815Y002619D01*
G37*
G36*
X011957Y002477D02*
X011823Y002611D01*
X012169Y002957D01*
X012303Y002823D01*
X011957Y002477D01*
G37*
G36*
X012091Y002343D02*
X011957Y002477D01*
X012303Y002823D01*
X012437Y002689D01*
X012091Y002343D01*
G37*
G36*
X012749Y002689D02*
X012883Y002823D01*
X013229Y002477D01*
X013095Y002343D01*
X012749Y002689D01*
G37*
G36*
X012883Y002823D02*
X013017Y002957D01*
X013363Y002611D01*
X013229Y002477D01*
X012883Y002823D01*
G37*
G36*
X013025Y002965D02*
X013159Y003099D01*
X013505Y002753D01*
X013371Y002619D01*
X013025Y002965D01*
G37*
G36*
X013166Y003106D02*
X013300Y003240D01*
X013646Y002894D01*
X013512Y002760D01*
X013166Y003106D01*
G37*
G36*
X013301Y003241D02*
X013435Y003375D01*
X013781Y003029D01*
X013647Y002895D01*
X013301Y003241D01*
G37*
G36*
X013442Y003382D02*
X013576Y003516D01*
X013922Y003170D01*
X013788Y003036D01*
X013442Y003382D01*
G37*
G36*
X013583Y003524D02*
X013717Y003658D01*
X014063Y003312D01*
X013929Y003178D01*
X013583Y003524D01*
G37*
G36*
X013725Y003665D02*
X013859Y003799D01*
X014205Y003453D01*
X014071Y003319D01*
X013725Y003665D01*
G37*
G36*
X013859Y003799D02*
X013993Y003933D01*
X014339Y003587D01*
X014205Y003453D01*
X013859Y003799D01*
G37*
G36*
X014001Y003941D02*
X014135Y004075D01*
X014481Y003729D01*
X014347Y003595D01*
X014001Y003941D01*
G37*
G36*
X014142Y004082D02*
X014276Y004216D01*
X014622Y003870D01*
X014488Y003736D01*
X014142Y004082D01*
G37*
G36*
X014276Y004216D02*
X014410Y004350D01*
X014756Y004004D01*
X014622Y003870D01*
X014276Y004216D01*
G37*
G36*
X014410Y004662D02*
X014276Y004796D01*
X014622Y005142D01*
X014756Y005008D01*
X014410Y004662D01*
G37*
G36*
X014276Y004797D02*
X014142Y004931D01*
X014488Y005277D01*
X014622Y005143D01*
X014276Y004797D01*
G37*
G36*
X014135Y004938D02*
X014001Y005072D01*
X014347Y005418D01*
X014481Y005284D01*
X014135Y004938D01*
G37*
G36*
X013993Y005080D02*
X013859Y005214D01*
X014205Y005560D01*
X014339Y005426D01*
X013993Y005080D01*
G37*
G36*
X013859Y005214D02*
X013725Y005348D01*
X014071Y005694D01*
X014205Y005560D01*
X013859Y005214D01*
G37*
G36*
X013717Y005355D02*
X013583Y005489D01*
X013929Y005835D01*
X014063Y005701D01*
X013717Y005355D01*
G37*
G36*
X013576Y005497D02*
X013442Y005631D01*
X013788Y005977D01*
X013922Y005843D01*
X013576Y005497D01*
G37*
G36*
X013435Y005638D02*
X013301Y005772D01*
X013647Y006118D01*
X013781Y005984D01*
X013435Y005638D01*
G37*
G36*
X013300Y005773D02*
X013166Y005907D01*
X013512Y006253D01*
X013646Y006119D01*
X013300Y005773D01*
G37*
G36*
X013159Y005914D02*
X013025Y006048D01*
X013371Y006394D01*
X013505Y006260D01*
X013159Y005914D01*
G37*
G36*
X013017Y006055D02*
X012883Y006189D01*
X013229Y006535D01*
X013363Y006401D01*
X013017Y006055D01*
G37*
G36*
X011823Y006401D02*
X011957Y006535D01*
X012303Y006189D01*
X012169Y006055D01*
X011823Y006401D01*
G37*
G36*
X011957Y006536D02*
X012091Y006670D01*
X012437Y006324D01*
X012303Y006190D01*
X011957Y006536D01*
G37*
G36*
X011681Y006260D02*
X011815Y006394D01*
X012161Y006048D01*
X012027Y005914D01*
X011681Y006260D01*
G37*
G36*
X011540Y006119D02*
X011674Y006253D01*
X012020Y005907D01*
X011886Y005773D01*
X011540Y006119D01*
G37*
G36*
X011406Y005984D02*
X011540Y006118D01*
X011886Y005772D01*
X011752Y005638D01*
X011406Y005984D01*
G37*
G36*
X011264Y005843D02*
X011398Y005977D01*
X011744Y005631D01*
X011610Y005497D01*
X011264Y005843D01*
G37*
G36*
X011123Y005701D02*
X011257Y005835D01*
X011603Y005489D01*
X011469Y005355D01*
X011123Y005701D01*
G37*
G36*
X010981Y005560D02*
X011115Y005694D01*
X011461Y005348D01*
X011327Y005214D01*
X010981Y005560D01*
G37*
G36*
X010847Y005426D02*
X010981Y005560D01*
X011327Y005214D01*
X011193Y005080D01*
X010847Y005426D01*
G37*
G36*
X010706Y005284D02*
X010840Y005418D01*
X011186Y005072D01*
X011052Y004938D01*
X010706Y005284D01*
G37*
G36*
X010564Y005143D02*
X010698Y005277D01*
X011044Y004931D01*
X010910Y004797D01*
X010564Y005143D01*
G37*
G36*
X010430Y005008D02*
X010564Y005142D01*
X010910Y004796D01*
X010776Y004662D01*
X010430Y005008D01*
G37*
G36*
X010564Y003870D02*
X010430Y004004D01*
X010776Y004350D01*
X010910Y004216D01*
X010564Y003870D01*
G37*
G36*
X010698Y003736D02*
X010564Y003870D01*
X010910Y004216D01*
X011044Y004082D01*
X010698Y003736D01*
G37*
G36*
X010981Y003453D02*
X010847Y003587D01*
X011193Y003933D01*
X011327Y003799D01*
X010981Y003453D01*
G37*
G36*
X012883Y006190D02*
X012749Y006324D01*
X013095Y006670D01*
X013229Y006536D01*
X012883Y006190D01*
G37*
D11*
X000999Y001380D03*
X001999Y001380D03*
X002999Y001380D03*
X003999Y001380D03*
X004999Y001380D03*
X005999Y001380D03*
X006999Y001380D03*
X007999Y001380D03*
X008999Y001380D03*
X009999Y001380D03*
X010999Y001380D03*
X011999Y001380D03*
X012967Y001380D03*
X013967Y001380D03*
X014967Y001380D03*
X015967Y001380D03*
X016967Y001380D03*
X017967Y001380D03*
X018967Y001380D03*
X019967Y001380D03*
X020967Y001380D03*
X021967Y001380D03*
X022967Y001380D03*
X023967Y001380D03*
X023967Y007365D03*
X022967Y007365D03*
X021967Y007365D03*
X020967Y007365D03*
X019967Y007365D03*
X018967Y007365D03*
X017967Y007365D03*
X016967Y007365D03*
X015967Y007365D03*
X014967Y007365D03*
X013967Y007365D03*
X012967Y007365D03*
X011999Y007365D03*
X010999Y007365D03*
X009999Y007365D03*
X008999Y007365D03*
X007999Y007365D03*
X006999Y007365D03*
X005999Y007365D03*
X004999Y007365D03*
X003999Y007365D03*
X002999Y007365D03*
X001999Y007365D03*
X000999Y007365D03*
D12*
X001932Y004491D03*
X023191Y004491D03*
M02*
