G75*
%MOIN*%
%OFA0B0*%
%FSLAX24Y24*%
%IPPOS*%
%LPD*%
%AMOC8*
5,1,8,0,0,1.08239X$1,22.5*
%
%ADD10C,0.0040*%
%ADD11C,0.0060*%
%ADD12C,0.0030*%
D10*
X003475Y004125D02*
X003389Y004212D01*
X003389Y004385D01*
X003475Y004472D01*
X003649Y004472D01*
X003736Y004385D01*
X003736Y004298D01*
X003389Y004298D01*
X003475Y004125D02*
X003649Y004125D01*
X003904Y004125D02*
X004078Y004125D01*
X003991Y004125D02*
X003991Y004645D01*
X003904Y004645D01*
X004248Y004385D02*
X004335Y004472D01*
X004508Y004472D01*
X004595Y004385D01*
X004595Y004298D01*
X004248Y004298D01*
X004248Y004212D02*
X004248Y004385D01*
X004248Y004212D02*
X004335Y004125D01*
X004508Y004125D01*
X004764Y004212D02*
X004850Y004125D01*
X005111Y004125D01*
X005366Y004212D02*
X005453Y004125D01*
X005366Y004212D02*
X005366Y004559D01*
X005279Y004472D02*
X005453Y004472D01*
X005623Y004472D02*
X005623Y004125D01*
X005623Y004298D02*
X005797Y004472D01*
X005883Y004472D01*
X006053Y004385D02*
X006053Y004212D01*
X006140Y004125D01*
X006313Y004125D01*
X006400Y004212D01*
X006400Y004385D01*
X006313Y004472D01*
X006140Y004472D01*
X006053Y004385D01*
X006568Y004472D02*
X006829Y004472D01*
X006915Y004385D01*
X006915Y004125D01*
X007084Y004212D02*
X007171Y004125D01*
X007431Y004125D01*
X007431Y004472D01*
X007600Y004472D02*
X007773Y004472D01*
X007686Y004559D02*
X007686Y004212D01*
X007773Y004125D01*
X007943Y004125D02*
X007943Y004212D01*
X008030Y004212D01*
X008030Y004125D01*
X007943Y004125D01*
X008201Y004125D02*
X008375Y004125D01*
X008288Y004125D02*
X008288Y004472D01*
X008201Y004472D01*
X008288Y004645D02*
X008288Y004732D01*
X008545Y004472D02*
X008805Y004472D01*
X008892Y004385D01*
X008892Y004125D01*
X008545Y004125D02*
X008545Y004472D01*
X007084Y004472D02*
X007084Y004212D01*
X006568Y004125D02*
X006568Y004472D01*
X005111Y004472D02*
X004850Y004472D01*
X004764Y004385D01*
X004764Y004212D01*
X016550Y004310D02*
X016897Y004310D01*
X017066Y004224D02*
X017152Y004310D01*
X017326Y004310D01*
X017413Y004224D01*
X017413Y004137D01*
X017326Y004050D01*
X017152Y004050D01*
X017066Y004137D01*
X017066Y004224D01*
X017152Y004310D02*
X017066Y004397D01*
X017066Y004484D01*
X017152Y004571D01*
X017326Y004571D01*
X017413Y004484D01*
X017413Y004397D01*
X017326Y004310D01*
X017581Y004050D02*
X017928Y004050D01*
X018097Y004137D02*
X018184Y004050D01*
X018357Y004050D01*
X018444Y004137D01*
X018444Y004484D01*
X018357Y004571D01*
X018184Y004571D01*
X018097Y004484D01*
X018097Y004137D01*
X018270Y004224D02*
X018444Y004050D01*
X018613Y004050D02*
X018613Y004571D01*
X018960Y004571D01*
X019128Y004571D02*
X019388Y004571D01*
X019475Y004484D01*
X019475Y004310D01*
X019388Y004224D01*
X019128Y004224D01*
X019128Y004050D02*
X019128Y004571D01*
X018786Y004310D02*
X018613Y004310D01*
X017581Y004571D02*
X017581Y004050D01*
X016810Y004050D02*
X016810Y004571D01*
X016550Y004310D01*
X020160Y004397D02*
X020333Y004397D01*
X020246Y004484D02*
X020246Y004137D01*
X020333Y004050D01*
X020503Y004137D02*
X020590Y004050D01*
X020764Y004050D01*
X020850Y004137D01*
X020850Y004310D01*
X020764Y004397D01*
X020590Y004397D01*
X020503Y004310D01*
X020503Y004137D01*
X021535Y004050D02*
X021795Y004050D01*
X021882Y004137D01*
X021882Y004484D01*
X021795Y004571D01*
X021535Y004571D01*
X021535Y004050D01*
X022050Y004050D02*
X022224Y004050D01*
X022137Y004050D02*
X022137Y004571D01*
X022050Y004571D02*
X022224Y004571D01*
X022394Y004571D02*
X022654Y004571D01*
X022741Y004484D01*
X022741Y004310D01*
X022654Y004224D01*
X022394Y004224D01*
X022394Y004050D02*
X022394Y004571D01*
D11*
X014545Y004506D02*
X014453Y004415D01*
X014545Y004506D02*
X014453Y004598D01*
X010995Y004761D02*
X010995Y004252D01*
X010733Y004415D02*
X010641Y004506D01*
X010733Y004598D01*
X012501Y006366D02*
X012593Y006458D01*
X012685Y006366D01*
X012685Y002647D02*
X012593Y002555D01*
X012501Y002647D01*
D12*
X010126Y003699D02*
X010126Y004143D01*
X010126Y003699D01*
X010016Y003810D02*
X010237Y004032D01*
X010016Y003810D01*
X009905Y003921D02*
X010348Y003921D01*
X009905Y003921D01*
X010016Y004032D02*
X010237Y003810D01*
X010016Y004032D01*
M02*
